<svg width="35" height="25" viewBox="0 0 35 25" fill="none" xmlns="http://www.w3.org/2000/svg">
<g clip-path="url(#clip0_203_1211)">
<path d="M26.2066 9.26624C26.1254 9.34468 26.0633 9.40467 26.0012 9.46466C25.1413 10.2953 24.2766 11.1259 23.4215 11.9611C23.1874 12.1872 22.9246 12.2933 22.6045 12.1826C22.294 12.0765 22.165 11.8411 22.122 11.532C21.9739 10.4106 20.8035 9.79229 19.805 10.3045C19.2031 10.6137 18.8687 11.2643 18.9834 11.9103C19.1028 12.5841 19.6187 13.064 20.3162 13.1793C20.5312 13.2162 20.7748 13.2855 20.9373 13.4193C21.2382 13.6731 21.1952 14.1068 20.8943 14.4022C20.0248 15.2466 19.1506 16.0865 18.2763 16.9309C18.2142 16.9909 18.1521 17.0509 18.0804 17.1201C18.1426 17.1847 18.1903 17.2447 18.2477 17.2955C19.1219 18.1399 19.9961 18.9798 20.8608 19.8242C21.0901 20.0457 21.3433 20.1518 21.6586 20.0503C21.9787 19.9442 22.1173 19.7088 22.1603 19.3858C22.3036 18.2691 23.4836 17.6508 24.4772 18.1676C25.0792 18.4768 25.4088 19.132 25.2942 19.7734C25.1747 20.4333 24.6636 20.9271 23.9804 21.0286C23.7415 21.0655 23.5027 21.0886 23.3307 21.2778C23.0775 21.55 23.0727 21.9561 23.345 22.2191C24.1285 22.9851 24.9168 23.7465 25.7098 24.5033C25.9964 24.7756 26.4264 24.7709 26.7178 24.5033C26.928 24.3049 27.1334 24.1018 27.3436 23.8988C29.4743 21.8315 31.6145 19.7642 33.7547 17.7015C34.1513 17.3185 34.1513 16.9401 33.7595 16.5618C31.304 14.1899 28.8532 11.8227 26.3977 9.45082C26.3404 9.39544 26.2831 9.34007 26.2066 9.26624Z" fill="#23273A"/>
<path d="M8.91213 8.28336C9.05067 8.41718 9.1701 8.53254 9.28476 8.64329C10.0969 9.42776 10.9043 10.2122 11.7164 10.9921C11.9409 11.209 12.0317 11.4535 11.9362 11.7442C11.8311 12.0442 11.597 12.1965 11.2721 12.2241C10.0969 12.321 9.4663 13.507 9.98702 14.4668C10.3023 15.0482 10.9855 15.3712 11.6495 15.2559C12.347 15.1405 12.8391 14.6375 12.9633 13.9638C13.0015 13.7562 13.0779 13.5208 13.2165 13.3685C13.484 13.0824 13.9283 13.124 14.234 13.4193C15.1083 14.2591 15.9777 15.1036 16.852 15.948C16.9141 16.008 16.9714 16.0634 17.0431 16.1326C17.7119 15.4866 18.3712 14.8498 19.0448 14.1991C18.0129 13.5531 17.4683 12.6487 17.5399 11.4443C17.5877 10.5998 17.989 9.92151 18.6483 9.377C19.7088 8.50486 21.9589 8.31566 23.1867 10.1984C23.846 9.56157 24.5004 8.92939 25.1836 8.26952C25.1263 8.21414 25.0642 8.15415 25.0068 8.09878C22.5465 5.72231 20.0862 3.34585 17.6259 0.96938C17.2533 0.609449 16.852 0.609449 16.4794 0.964766C14.0143 3.35508 11.5492 5.73616 9.07934 8.11724C9.03156 8.168 8.98379 8.21414 8.91213 8.28336Z" fill="#FA4A6F"/>
</g>
<defs>
<clipPath id="clip0_203_1211">
<rect width="34" height="24" fill="white" transform="matrix(-1 0 0 1 34.0508 0.706299)"/>
</clipPath>
</defs>
</svg>
