<svg width="53" height="53" viewBox="0 0 53 53" fill="none" xmlns="http://www.w3.org/2000/svg">
<mask id="mask0_203_1466" style="mask-type:alpha" maskUnits="userSpaceOnUse" x="0" y="0" width="53" height="53">
<rect x="0.0410156" y="0.932495" width="52" height="52" fill="#D9D9D9"/>
</mask>
<g mask="url(#mask0_203_1466)">
<path d="M10.8743 46.4325C9.68268 46.4325 8.66254 46.0082 7.81393 45.1596C6.96532 44.311 6.54102 43.2908 6.54102 42.0992V11.7658C6.54102 10.5742 6.96532 9.55402 7.81393 8.70541C8.66254 7.8568 9.68268 7.4325 10.8743 7.4325H30.3743V11.7658H10.8743V42.0992H41.2077V22.5992H45.541V42.0992C45.541 43.2908 45.1167 44.311 44.2681 45.1596C43.4195 46.0082 42.3993 46.4325 41.2077 46.4325H10.8743ZM36.8743 20.4325V16.0992H32.541V11.7658H36.8743V7.4325H41.2077V11.7658H45.541V16.0992H41.2077V20.4325H36.8743ZM13.041 37.7658H39.041L30.916 26.9325L24.416 35.5992L19.541 29.0992L13.041 37.7658Z" fill="#EC3384"/>
</g>
</svg>
