<svg width="21" height="20" viewBox="0 0 21 20" fill="none" xmlns="http://www.w3.org/2000/svg">
<g clip-path="url(#clip0_203_82)">
<path d="M11.0938 8.18188V12.0546H16.5854C16.3443 13.3001 15.6206 14.3547 14.5353 15.0638L17.847 17.582C19.7765 15.8366 20.8897 13.2729 20.8897 10.2275C20.8897 9.51837 20.8248 8.83648 20.7041 8.18199L11.0938 8.18188Z" fill="#4285F4"/>
<path d="M5.37513 11.9034L4.62822 12.4638L1.98438 14.4819C3.66342 17.7455 7.10474 20.0001 11.0936 20.0001C13.8486 20.0001 16.1585 19.1092 17.8468 17.582L14.5351 15.0638C13.626 15.6638 12.4665 16.0274 11.0936 16.0274C8.44054 16.0274 6.18642 14.2729 5.3793 11.9092L5.37513 11.9034Z" fill="#34A853"/>
<path d="M1.98517 5.51819C1.28947 6.8636 0.890625 8.38181 0.890625 9.99997C0.890625 11.6181 1.28947 13.1364 1.98517 14.4818C1.98517 14.4908 5.38042 11.8999 5.38042 11.8999C5.17634 11.2999 5.05571 10.6636 5.05571 9.99987C5.05571 9.33614 5.17634 8.69981 5.38042 8.09981L1.98517 5.51819Z" fill="#FBBC05"/>
<path d="M11.0938 3.98184C12.5966 3.98184 13.9324 4.49092 14.9992 5.47275L17.9213 2.60914C16.1495 0.990976 13.849 0 11.0938 0C7.10495 0 3.66342 2.24546 1.98438 5.51822L5.37952 8.10005C6.18653 5.73638 8.44074 3.98184 11.0938 3.98184Z" fill="#EA4335"/>
</g>
<defs>
<clipPath id="clip0_203_82">
<rect width="20" height="20" fill="white" transform="translate(0.890625)"/>
</clipPath>
</defs>
</svg>
