<svg width="94" height="81" viewBox="0 0 94 81" fill="none" xmlns="http://www.w3.org/2000/svg">
<path d="M54.1784 80.0143C48.7302 80.0143 43.6317 79.002 38.8829 76.9773C34.1341 74.9527 29.956 72.1733 26.3484 68.6394L32.6432 62.3445C35.441 65.0686 38.6804 67.2221 42.3617 68.805C46.0429 70.388 49.9818 71.1794 54.1784 71.1794C62.7188 71.1794 70.0076 68.1608 76.0448 62.1236C82.082 56.0864 85.1006 48.7976 85.1006 40.2572C85.1006 31.7167 82.082 24.4279 76.0448 18.3907C70.0076 12.3535 62.7188 9.33493 54.1784 9.33493C45.638 9.33493 38.3491 12.3535 32.3119 18.3907C26.2747 24.4279 23.2561 31.7167 23.2561 40.2572V41.0302L31.318 32.9684L37.6129 39.1528L18.8387 57.927L0.0644531 39.1528L6.35934 32.9684L14.4212 41.1407V40.2572C14.4212 34.7353 15.4704 29.5632 17.5687 24.7408C19.6669 19.9184 22.5015 15.7218 26.0723 12.1511C29.6431 8.58028 33.8396 5.74574 38.662 3.64744C43.4844 1.54915 48.6566 0.5 54.1784 0.5C59.7002 0.5 64.8723 1.54915 69.6947 3.64744C74.5171 5.74574 78.7137 8.58028 82.2845 12.1511C85.8553 15.7218 88.6898 19.9184 90.7881 24.7408C92.8864 29.5632 93.9355 34.7353 93.9355 40.2572C93.9355 51.3008 90.0703 60.6879 82.3397 68.4185C74.6091 76.1491 65.222 80.0143 54.1784 80.0143Z" fill="#8A8B92"/>
<path d="M46.4721 57.927C45.2205 57.927 44.1714 57.5037 43.3247 56.657C42.478 55.8103 42.0547 54.7611 42.0547 53.5095V40.2571C42.0547 39.0055 42.478 37.9564 43.3247 37.1097C44.1714 36.263 45.2205 35.8397 46.4721 35.8397V31.4222C46.4721 28.9926 47.3372 26.9127 49.0674 25.1825C50.7976 23.4524 52.8775 22.5873 55.3071 22.5873C57.7367 22.5873 59.8166 23.4524 61.5467 25.1825C63.2769 26.9127 64.142 28.9926 64.142 31.4222V35.8397C65.3936 35.8397 66.4428 36.263 67.2894 37.1097C68.1361 37.9564 68.5595 39.0055 68.5595 40.2571V53.5095C68.5595 54.7611 68.1361 55.8103 67.2894 56.657C66.4428 57.5037 65.3936 57.927 64.142 57.927H46.4721ZM50.8896 35.8397H59.7245V31.4222C59.7245 30.1706 59.3012 29.1214 58.4545 28.2748C57.6078 27.4281 56.5587 27.0047 55.3071 27.0047C54.0555 27.0047 53.0063 27.4281 52.1596 28.2748C51.313 29.1214 50.8896 30.1706 50.8896 31.4222V35.8397Z" fill="#FA4A6F"/>
</svg>
