<svg width="21" height="21" viewBox="0 0 21 21" fill="none" xmlns="http://www.w3.org/2000/svg">
<mask id="mask0_170_605" style="mask-type:alpha" maskUnits="userSpaceOnUse" x="0" y="0" width="21" height="21">
<rect x="0.5" y="0.274902" width="20" height="20" fill="#D9D9D9"/>
</mask>
<g mask="url(#mask0_170_605)">
<path d="M10.5404 16.9417C8.67925 16.9417 7.09592 16.2958 5.79037 15.0042C4.48481 13.7125 3.83203 12.1361 3.83203 10.275V10.1292L2.4987 11.4625L1.33203 10.2958L4.66536 6.9625L7.9987 10.2958L6.83203 11.4625L5.4987 10.1292V10.275C5.4987 11.6639 5.98828 12.8444 6.96745 13.8167C7.94662 14.7889 9.13759 15.275 10.5404 15.275C10.9015 15.275 11.2556 15.2333 11.6029 15.15C11.9501 15.0667 12.2904 14.9417 12.6237 14.775L13.8737 16.025C13.3459 16.3306 12.8043 16.5597 12.2487 16.7125C11.6931 16.8653 11.1237 16.9417 10.5404 16.9417ZM16.332 13.5875L12.9987 10.2542L14.1654 9.0875L15.4987 10.4208V10.275C15.4987 8.88611 15.0091 7.70556 14.0299 6.73334C13.0508 5.76111 11.8598 5.275 10.457 5.275C10.0959 5.275 9.74175 5.31667 9.39453 5.4C9.04731 5.48334 8.70703 5.60834 8.3737 5.775L7.1237 4.525C7.65148 4.21945 8.19314 3.99028 8.7487 3.8375C9.30426 3.68473 9.8737 3.60834 10.457 3.60834C12.3181 3.60834 13.9015 4.25417 15.207 5.54584C16.5126 6.8375 17.1654 8.41389 17.1654 10.275V10.4208L18.4987 9.0875L19.6654 10.2542L16.332 13.5875Z" fill="#23273A"/>
</g>
</svg>
