<svg width="120" height="22" viewBox="0 0 120 22" fill="none" xmlns="http://www.w3.org/2000/svg">
<path d="M10.5461 0.475586L12.9139 7.76277H20.5761L14.3772 12.2665L16.745 19.5537L10.5461 15.05L4.34726 19.5537L6.71501 12.2665L0.516164 7.76277H8.17836L10.5461 0.475586Z" fill="#FF8A35"/>
<path d="M35.2571 0.475586L37.6248 7.76277H45.287L39.0882 12.2665L41.4559 19.5537L35.2571 15.05L29.0582 19.5537L31.426 12.2665L25.2271 7.76277H32.8893L35.2571 0.475586Z" fill="#FF8A35"/>
<path d="M59.9719 0.475586L62.3396 7.76277H70.0018L63.803 12.2665L66.1707 19.5537L59.9719 15.05L53.773 19.5537L56.1408 12.2665L49.9419 7.76277H57.6041L59.9719 0.475586Z" fill="#FF8A35"/>
<path d="M84.6867 0.475586L87.0545 7.76277H94.7167L88.5178 12.2665L90.8856 19.5537L84.6867 15.05L78.4879 19.5537L80.8556 12.2665L74.6568 7.76277H82.319L84.6867 0.475586Z" fill="#FF8A35"/>
<path d="M109.398 0.475586L111.765 7.76277H119.428L113.229 12.2665L115.597 19.5537L109.398 15.05L103.199 19.5537L105.567 12.2665L99.3677 7.76277H107.03L109.398 0.475586Z" fill="#FF8A35"/>
</svg>
