<svg width="53" height="53" viewBox="0 0 53 53" fill="none" xmlns="http://www.w3.org/2000/svg">
<mask id="mask0_203_1469" style="mask-type:alpha" maskUnits="userSpaceOnUse" x="0" y="0" width="53" height="53">
<rect x="0.541016" y="0.932617" width="52" height="52" fill="#D9D9D9"/>
</mask>
<g mask="url(#mask0_203_1469)">
<path d="M7.0345 42.0986C5.84284 42.0986 4.8227 41.6743 3.97409 40.8257C3.12548 39.9771 2.70117 38.9569 2.70117 37.7653V16.0986C2.70117 14.9069 3.12548 13.8868 3.97409 13.0382C4.8227 12.1896 5.84284 11.7653 7.0345 11.7653H28.7012C29.8928 11.7653 30.913 12.1896 31.7616 13.0382C32.6102 13.8868 33.0345 14.9069 33.0345 16.0986V37.7653C33.0345 38.9569 32.6102 39.9771 31.7616 40.8257C30.913 41.6743 29.8928 42.0986 28.7012 42.0986H7.0345ZM7.0345 37.7653H28.7012V16.0986H7.0345V37.7653ZM9.20117 33.4319H26.5345L20.9012 25.8486L16.7845 31.2653L13.7512 27.2569L9.20117 33.4319ZM37.3678 42.0986V11.7653H41.7012V42.0986H37.3678ZM46.0345 42.0986V11.7653H50.3678V42.0986H46.0345Z" fill="white"/>
</g>
</svg>
