<svg xmlns="http://www.w3.org/2000/svg" xml:space="preserve" id="Layer_2" x="0" y="0" style="enable-background:new 0 0 361.8 156.4" version="1.1" viewBox="0 0 361.8 156.4"><style>.st8{fill:#9a773d}.st64{fill:#fff}.st80{fill:#8fa5cd}.st81{opacity:.9;fill:#98acd1}.st86{fill:#b2d9f3}.st87{fill:#bec9e1}.st92{fill:#a4b5d5}.st97{fill:#213b73}.st104{fill:#e5e5e4}</style><linearGradient id="SVGID_1_" x1=".424" x2="154.942" y1="113.137" y2="113.137" gradientUnits="userSpaceOnUse"><stop offset="0" style="stop-color:#d1bb72"/><stop offset=".129" style="stop-color:#cfb86e"/><stop offset=".269" style="stop-color:#c9b060"/><stop offset=".415" style="stop-color:#bfa34b"/><stop offset=".553" style="stop-color:#b3922f"/><stop offset=".719" style="stop-color:#b79735"/><stop offset=".931" style="stop-color:#c1a444"/><stop offset="1" style="stop-color:#c5aa4b"/></linearGradient><path d="M143.9 71c-3.2 4.1-6.9 7.9-10.8 11.4.5-.1 1.1-.2 1.6-.3 1.4-.1 3-.3 4 .8.8 1.3.9 3.1.8 4.8-.2 1.9-.3 6-2.1 8.1s-4.4 0-5.9-.8c-2.6-1.9-5.2-3.7-7.6-5.7-.7.5-1.5 1-2.2 1.4 2.1 2 4 4.2 5.7 6.5.1 2.2-2.5 1.4-3.8 2.1-2.5.1-4.9.4-7.2.1-.5.9-1 1.8-1.6 2.6 4.7-.1 9.4.4 14.1 1.4 1.4.4 2.9.9 3.4 2.3.3 2.3-1.5 5.6-3.8 9.1-.7 1-1.5 2.2-2.5 2.6-2.6.9-4-1.7-5.1-2.9-2.4-3.9-4.9-7.6-6.4-11.9-.6.9-1.2 1.7-1.8 2.5 1.6 3.1 2.7 6.4 3.5 9.9-.7 2-2.9.3-4.3.5-2.4-.8-4.8-1.5-6.8-2.7-.8.6-1.6 1.2-2.5 1.8 4.4 1.7 8.6 4 12.6 6.8 1.1.9 2.3 1.9 2.3 3.4-.3 1.4-1.3 3.3-4.5 5.3-1.7 1.1-3.7 2.7-6 2.5s-2.8-2.7-3.3-4.3c-.7-4.5-1.6-8.9-1.3-13.5-.9.6-1.8 1.1-2.7 1.7.3 3.5.1 7-.5 10.5-1.5 1.6-2.8-.8-4.2-1.2-1.9-1.7-3.8-3.2-5.2-5.1-1 .3-2 .5-3 .7 3.4 3.3 6.4 7 9 11 .7 1.3 1.4 2.7.8 4-.6.9-1.1 1.5-3.4 2.5-1.1.4-6.2 1.2-6.3 1.2-.9.1-1.6.3-3-.3-1.5-.5-1.5-3.8-1.4-5.5.9-4.6 1.9-8.9 3.9-12.9-1 .2-2 .4-3.1.5-1.1 3.3-2.6 6.4-4.5 9.4-2 .9-2.2-1.8-3.4-2.7-1.1-2.3-2.3-4.4-2.9-6.6-1-.1-2-.3-3-.5 1.9 4.3 3.3 8.9 4.1 13.6.1 1.4.3 3-.8 4-1 .6-4.8.6-8.2-.1-2.6-.5-5.1-1.7-5.4-2.3-.8-1.4.5-3.4 1.3-4.9 2.7-3.7 5.1-7.4 8.5-10.4-1-.2-2-.4-3-.7-2.3 2.6-4.9 4.9-7.7 7-2.2.1-1.4-2.5-2.1-3.8-.1-2.5-.4-4.9-.1-7.2-.9-.5-1.8-1-2.6-1.6.1 4.7-.4 9.5-1.4 14.1-.4 1.4-.9 2.9-2.3 3.4-1.3.4-2.8-.3-4.3-.9-.3-.2-5.4-3.4-7-5.4-2.1-2.6 1.7-4 3-5.1 3.9-2.3 7.6-4.8 11.8-6.3-.9-.6-1.7-1.2-2.5-1.8-3.1 1.6-6.3 2.7-9.7 3.5-2-.7-.3-2.9-.5-4.3.8-2.3 1.5-4.7 2.6-6.7-.6-.8-1.2-1.6-1.8-2.5-1.7 4.4-4 8.5-6.7 12.4-.9 1.1-1.9 2.3-3.4 2.2-1.9-.5-3.7-2.9-5.1-4.6-1.2-1.9-2.6-3.3-3.2-5.7s2.8-3.2 4.7-3.6c4.4-.7 8.8-1.6 13.3-1.3-.6-.9-1.1-1.7-1.6-2.6-3.5.2-6.9 0-10.3-.5-1.6-1.5.8-2.8 1.2-4.1 1.3-1.4 2.5-2.9 3.8-4.1-.7-.5-1.5-.9-2.2-1.4-2.6 2.3-5.3 4.4-8.3 6.3-1.3.7-2.7 1.4-4 .8-1.5-1.1-2.3-3.4-2.9-5.4-.7-2.4-1.4-4.4-.6-7.2s4-1.7 5.7-1.5c.4.1.7.2 1.1.3-4.1-3.5-7.8-7.4-11.1-11.6 0 .1-.1.2-.1.3-3 3.4-7 4.4-11.3 4.2v3.8c4.8-.3 9.8 1.4 12 6.3.2.6.4 1.1.6 1.7 1.2 5 1.1 7.3.9 9.4-.9 4.6-4.2 7.1-8.2 8.6.5 1.2 1 2.6 1.4 3.5 4.3-2.1 9.5-2.5 13.4 1.2l2.7 3c1.9 2.5 2.8 4.8 3.1 6.8.9 4.6-1.2 8.1-4.3 11.1l2.7 2.7c3.2-3.6 7.9-5.9 12.9-4 .4.2 5 2.9 6.6 4.5l2.2 2.2c2.6 3.9 2 8 .2 11.9 1.2.5 2.6 1.1 3.5 1.5 1.6-4.5 5-8.5 10.4-8.6.5 0 2.5-.2 6.8 1.1 1.5.5 2.9 1.1 4.1 1.7 3.9 2.6 4.9 6.6 4.8 10.9H80c-.3-4.8 1.4-9.8 6.3-12 4-1.5 8.9-1.6 11-1.6 4.6.9 7.1 4.2 8.6 8.2 1.2-.5 2.6-1 3.5-1.4-2.1-4.3-2.5-9.5 1.2-13.4 2-2 7.5-4.8 9.5-5.6 4.6-.9 8.1 1.2 11.1 4.3l2.7-2.7c-3.6-3.2-5.9-7.9-4-12.9.6-1.4 4.5-6.8 4.7-7.1l2-2c3.9-2.6 8-2 11.9-.2.5-1.2 1.1-2.6 1.5-3.5-4.5-1.6-8.5-5-8.6-10.4-.1-5.3 1.8-8.9 2.7-10.7 2.6-3.9 6.6-4.9 10.9-4.8v-3.8c-4.3.3-8.7-1-11.1-4.7z" style="fill:url(#SVGID_1_)"/><linearGradient id="SVGID_2_" x1=".424" x2="154.942" y1="113.137" y2="113.137" gradientUnits="userSpaceOnUse"><stop offset="0" style="stop-color:#d5c27e"/><stop offset=".55" style="stop-color:#d5c27e"/><stop offset=".83" style="stop-color:#d3bf78"/><stop offset="1" style="stop-color:#d1bb72"/></linearGradient><path d="M143.9 71c-3.2 4.1-6.9 7.9-10.8 11.4.5-.1 1.1-.2 1.6-.3 1.4-.1 3-.3 4 .8.8 1.3.9 3.1.8 4.8-.2 1.9-.3 6-2.1 8.1s-4.4 0-5.9-.8c-2.6-1.9-5.2-3.7-7.6-5.7-.7.5-1.5 1-2.2 1.4 2.1 2 4 4.2 5.7 6.5.1 2.2-2.5 1.4-3.8 2.1-2.5.1-4.9.4-7.2.1-.5.9-1 1.8-1.6 2.6 3.6-.1 7.2.2 10.8.8l3.3.6c1.4.4 2.9.9 3.4 2.3.3 2.3-1.5 5.6-3.8 9.1-.7 1-1.5 2.2-2.5 2.6-2.6.9-4-1.7-5.1-2.9-.5-.8-.9-1.5-1.4-2.3-1.9-3.1-3.8-6.2-5-9.6-.6.9-1.2 1.7-1.8 2.5 1.6 3.1 2.7 6.4 3.5 9.9-.7 2-2.9.3-4.3.5-2.4-.8-4.8-1.5-6.8-2.7-.8.6-1.6 1.2-2.5 1.8 4.4 1.7 8.6 4 12.6 6.8 1.1.9 2.3 1.9 2.3 3.4-.3 1.4-1.3 3.3-4.5 5.3-1.7 1.1-3.7 2.7-6 2.5s-2.8-2.7-3.3-4.3c-.7-4.5-1.6-8.9-1.3-13.5-.9.6-1.8 1.1-2.7 1.7.3 3.5.1 7-.5 10.5-1.5 1.6-2.8-.8-4.2-1.2-1.9-1.7-3.8-3.2-5.2-5.1-1 .3-2 .5-3 .7 3.4 3.3 6.4 7 9 11 .7 1.3 1.4 2.7.8 4-.6.9-1.1 1.5-3.4 2.5-1.1.4-6.2 1.2-6.3 1.2-.9.1-1.6.3-3-.3-1.5-.5-1.5-3.8-1.4-5.5.9-4.6 1.9-8.9 3.9-12.9-1 .2-2 .4-3.1.5-1.1 3.3-2.6 6.4-4.5 9.4-2 .9-2.2-1.8-3.4-2.7-1.1-2.3-2.3-4.4-2.9-6.6-1-.1-2-.3-3-.5 1.9 4.3 3.3 8.9 4.1 13.6.1 1.4.3 3-.8 4-1 .6-4.8.6-8.2-.1-2.6-.5-5.1-1.7-5.4-2.3-.8-1.4.5-3.4 1.3-4.9 2.7-3.7 5.1-7.4 8.5-10.4-1-.2-2-.4-3-.7-2.3 2.6-4.9 4.9-7.7 7-2.2.1-1.4-2.5-2.1-3.8-.1-2.5-.4-4.9-.1-7.2-.9-.5-1.8-1-2.6-1.6.1 4.7-.4 9.5-1.4 14.1-.4 1.4-.9 2.9-2.3 3.4-1.3.4-2.8-.3-4.3-.9-.3-.2-5.4-3.4-7-5.4-2.1-2.6 1.7-4 3-5.1 3.9-2.3 7.6-4.8 11.8-6.3-.9-.6-1.7-1.2-2.5-1.8-3.1 1.6-6.3 2.7-9.7 3.5-2-.7-.3-2.9-.5-4.3.8-2.3 1.5-4.7 2.6-6.7-.6-.8-1.2-1.6-1.8-2.5-1.7 4.4-4 8.5-6.7 12.4-.9 1.1-1.9 2.3-3.4 2.2-1.9-.5-3.7-2.9-5.1-4.6-1.2-1.9-2.6-3.3-3.2-5.7s2.8-3.2 4.7-3.6c4.4-.7 8.8-1.6 13.3-1.3-.6-.9-1.1-1.7-1.6-2.6-3.5.2-6.9 0-10.3-.5-1.6-1.5.8-2.8 1.2-4.1 1.3-1.4 2.5-2.9 3.8-4.1-.7-.5-1.5-.9-2.2-1.4-2.6 2.3-5.3 4.4-8.3 6.3-1.3.7-2.7 1.4-4 .8-1.5-1.1-2.3-3.4-2.9-5.4-.7-2.4-1.4-4.4-.6-7.2s4-1.7 5.7-1.5c.4.1.7.2 1.1.3-4.1-3.5-7.8-7.4-11.1-11.6 0 .1-.1.2-.1.3-3 3.4-7 4.4-11.3 4.2v3.8c4.8-.3 9.8 1.4 12 6.3.2.6.4 1.1.6 1.7 1.2 5 1.1 7.3.9 9.4-.9 4.6-4.2 7.1-8.2 8.6.5 1.2 1 2.6 1.4 3.5 4.3-2.1 9.5-2.5 13.4 1.2l2.7 3c1.9 2.5 2.8 4.8 3.1 6.8.9 4.6-1.2 8.1-4.3 11.1l2.7 2.7c3.2-3.6 7.9-5.9 12.9-4 .4.2 5 2.9 6.6 4.5l2.2 2.2c2.6 3.9 2 8 .2 11.9 1.2.5 2.6 1.1 3.5 1.5 1.6-4.5 5-8.5 10.4-8.6.5 0 2.5-.2 6.8 1.1 1.5.5 2.9 1.1 4.1 1.7 3.9 2.6 4.9 6.6 4.8 10.9H80c-.3-4.8 1.4-9.8 6.3-12 4-1.5 8.9-1.6 11-1.6 4.6.9 7.1 4.2 8.6 8.2 1.2-.5 2.6-1 3.5-1.4-2.1-4.3-2.5-9.5 1.2-13.4 2-2 7.5-4.8 9.5-5.6 4.6-.9 8.1 1.2 11.1 4.3l2.7-2.7c-3.6-3.2-5.9-7.9-4-12.9.6-1.4 4.5-6.8 4.7-7.1l2-2c3.9-2.6 8-2 11.9-.2.5-1.2 1.1-2.6 1.5-3.5-4.5-1.6-8.5-5-8.6-10.4-.1-5.3 1.8-8.9 2.7-10.7 2.6-3.9 6.6-4.9 10.9-4.8v-3.8c-4.3.3-8.7-1-11.1-4.7z" style="opacity:.27;fill:url(#SVGID_2_)"/><linearGradient id="SVGID_3_" x1="5.434" x2="149.663" y1="43.389" y2="43.389" gradientUnits="userSpaceOnUse"><stop offset="0" style="stop-color:#d1bb72"/><stop offset=".096" style="stop-color:#d3be77"/><stop offset=".216" style="stop-color:#d7c587"/><stop offset=".347" style="stop-color:#dfd1a0"/><stop offset=".37" style="stop-color:#e1d4a5"/><stop offset=".536" style="stop-color:#d7c584"/><stop offset=".727" style="stop-color:#cdb665"/><stop offset=".888" style="stop-color:#c7ad52"/><stop offset="1" style="stop-color:#c5aa4b"/></linearGradient><path d="M149.7 49.8c-.5-1.2-1-2.6-1.4-3.5-4.3 2.1-9.5 2.5-13.4-1.2-.8-.9-2.4-2.8-4.3-6.4-.5-1.1-.9-2.2-1.3-3.3-.9-4.6 1.2-8.2 4.3-11.1l-2.7-2.7c-3.2 3.6-7.9 5.9-12.9 4-1-.4-7.1-4.4-8.7-6.8-2.6-3.9-2-8-.2-11.9-1.2-.5-2.6-1.1-3.5-1.5-1.6 4.5-5 8.5-10.4 8.6-6.3-.1-9-1.8-10.7-2.6-3.9-2.6-4.9-6.6-4.8-10.9h-3.8c.3 4.8-1.4 9.8-6.3 12-3.9 1.6-8.8 1.5-11.1 1.5-4.6-.9-7.1-4.2-8.6-8.2-1.2.5-2.6 1-3.5 1.4 2.1 4.3 2.5 9.5-1.2 13.4-.5.5-1.4 1.6-3.7 3.1-2.2 1.4-3.5 2-6.1 2.7-4.6.9-8.1-1.2-11.1-4.3-.9.9-2 1.9-2.7 2.7 3.6 3.2 5.9 7.9 4 12.9-.1.3-4.1 6.7-6.6 8.6-3.9 2.6-8 2-11.9.2-.5 1.2-1.1 2.6-1.5 3.5 4.5 1.6 8.5 5 8.6 10.4 0 .5-.3 4.5-1.1 7.1-.4 1.4-1 2.5-1.6 3.4 3.3 4.2 7 8.1 11.1 11.6 4 1 8 1.8 11.6 3.6-.2-1-.3-2-.5-3-3.3-1.1-6.3-2.6-9.3-4.4-.9-2 1.8-2.2 2.7-3.4 2.2-1.1 4.4-2.3 6.6-2.9.1-1 .3-2 .5-3-4.3 1.9-8.9 3.3-13.6 4.1-1.4.1-3 .3-4-.8-.7-1.2-.4-2.9-.2-4.6.1-1.1 1.3-8.2 2.6-8.7s3.4.3 4.9 1.1c3.7 2.7 7.4 5.2 10.4 8.6.2-1 .5-2 .7-3-2.7-2.3-5-4.9-7-7.8-.1-2.2 2.5-1.4 3.8-2.1 2.5-.1 5-.4 7.4-.1.5-.9 1.1-1.8 1.6-2.6-4.8.1-9.6-.4-14.3-1.4-1.4-.4-2.9-.9-3.4-2.3-.3-1.8.7-3.9 1.6-5.7.2-.2 2.6-4.3 4.7-5.1s4 1.3 5.1 2.6c2.4 3.9 4.9 7.6 6.4 11.9.6-.9 1.2-1.7 1.8-2.5-1.6-3.1-2.7-6.4-3.5-9.8.7-2 2.9-.3 4.3-.4 2.4.8 4.7 1.5 6.7 2.7.8-.6 1.6-1.2 2.5-1.8-4.4-1.7-8.6-4-12.5-6.7-1.1-.9-2.3-1.9-2.3-3.4.4-1.5 1.5-2.9 2.9-4 3.5-2.7 5.7-3.8 7.6-4 1.5-.2 3 2.8 3.5 4.4.7 4.5 1.6 8.9 1.3 13.4.9-.6 1.7-1.1 2.6-1.6-.2-3.5-.1-6.9.5-10.4 1.5-1.6 2.8.8 4.2 1.2 1.9 1.7 3.8 3.2 5.2 5.1 1-.3 2-.5 3-.7-3.4-3.3-6.5-7-9-11.1-.7-1.3-1.4-2.7-.8-4 .8-1.1 2.2-1.8 3.7-2.4.3-.1 3.9-1 6-1.2 1-.1 1.9-.3 3.3.3 1.6.7 1.4 3.8 1.2 5.5-1.1 4.4-1.9 8.8-3.9 12.8 1-.2 2-.3 3.1-.5 1.1-3.3 2.6-6.4 4.5-9.4 2-.9 2.2 1.8 3.4 2.7 1.1 2.3 2.3 4.4 2.9 6.7 1 .1 2 .3 3.1.5-1.9-4.3-3.3-8.9-4.1-13.7-.1-1.4-.3-3 .8-4 1.3-.8 3.2-.9 5-.7 3 .4 5.6 1 6.3 1.2.6.2 1.1.3 1.9 1.1 1 1-.3 4-1.1 5.5-2.7 3.7-5.2 7.6-8.7 10.6.6.1 1.1.2 1.7.4.4.1.9.2 1.3.3 2.3-2.7 5-5.1 7.9-7.2 2.2-.1 1.4 2.5 2.1 3.8.1 2.6.5 5.1.1 7.5h-.1c.9.4 1.6.8 2.2 1.4.2.1.3.2.5.3-.1-4.8.4-9.7 1.4-14.4.4-1.4.9-2.9 2.3-3.4 1.6-.2 7.1 2.3 8.9 4 .9.7 2.3 1.7 2.5 3.4.2 1.8-1.8 3-3.1 4.1-3.9 2.4-7.7 4.9-12 6.4.9.6 1.7 1.2 2.5 1.8 3.2-1.6 6.4-2.7 9.9-3.5 2 .7.3 2.9.4 4.3-.8 2.4-1.5 4.8-2.7 6.8.6.8 1.2 1.6 1.8 2.5 1.7-4.4 4-8.7 6.8-12.6.9-1.1 1.9-2.3 3.4-2.3 1.8.5 3.4 2.2 4.7 3.8 1.3 2 3.1 4.3 3.1 6.6s-2.8 3-4.4 3.6c-4.5.7-8.9 1.6-13.3 1.3.6.9 1.1 1.7 1.6 2.6 3.5-.2 6.9-.1 10.3.5 1.6 1.5-.8 2.8-1.2 4.2-1.7 1.8-3.1 3.8-5 5.2.3 1 .5 2 .7 3 3.3-3.4 6.9-6.4 10.9-8.9 1.3-.7 2.7-1.4 4-.8.9.7 1.6 1.8 2.1 3 .2.7 2.2 6.1 1.2 9-1.1 2.9-3.5 2.5-5.3 2.1-4.4-1.1-8.8-1.9-12.8-3.9.2 1 .4 2 .5 3.1 3.3 1.1 6.4 2.6 9.3 4.5.9 2-1.8 2.2-2.7 3.4-2.2 1.1-4.3 2.3-6.6 2.9-.1 1-.3 2-.5 3 3.8-1.7 7.8-2.9 11.9-3.7 3.9-3.4 7.6-7.2 10.8-11.4-.3-.5-.6-1-.9-1.6-1.8-5.3-1.6-8.9-1.6-11 1.4-5.2 4.8-7.6 8.8-9.2z" style="fill:url(#SVGID_3_)"/><linearGradient id="SVGID_4_" x1="157.824" x2="171.581" y1="108.597" y2="102.897" gradientTransform="matrix(-.00467 -1 1 -.00467 -90.24 274.687)" gradientUnits="userSpaceOnUse"><stop offset="0" style="stop-color:#a3804c"/><stop offset=".61" style="stop-color:#a5824c"/><stop offset=".829" style="stop-color:#ac884a"/><stop offset=".985" style="stop-color:#b79348"/><stop offset="1" style="stop-color:#b99548"/></linearGradient><path d="M7.5 106.1c.4.9.3.9.6 1.7 5.3-2.5 9.5-1 13 2.2.7.7 1.6 1.6 2.9 3.4l-1 .7c-1.2-1.7-3.1-3.5-3.1-3.5-4.7-4.4-10-2.3-12.3-1.1l-.4.2-.2-.6c-.4-.9-.9-2.2-1.4-3.3l-.2-.4 2.1.7z" style="fill:url(#SVGID_4_)"/><linearGradient id="SVGID_5_" x1="170.365" x2="184.708" y1="103.852" y2="97.909" gradientTransform="matrix(-.00467 -1 1 -.00467 -90.24 274.687)" gradientUnits="userSpaceOnUse"><stop offset="0" style="stop-color:#ddce98"/><stop offset=".384" style="stop-color:#e4cf94"/><stop offset="1" style="stop-color:#a68241"/></linearGradient><path d="m5.4 105.3.4-.2c3.7-1.4 7-3.1 7.9-7.6.5-3-.3-7.6-1.2-10.5l1.2-.3c.9 3.1 1.7 8.3 1.3 11.2-.7 4.8-4 6.7-7.5 8.1l-2.1-.7z" style="fill:url(#SVGID_5_)"/><linearGradient id="SVGID_6_" x1="21.747" x2="41.525" y1="131.368" y2="131.368" gradientUnits="userSpaceOnUse"><stop offset=".003" style="stop-color:#a78341"/><stop offset=".445" style="stop-color:#9d7a3e"/><stop offset="1" style="stop-color:#9a773d"/></linearGradient><path d="m23.4 131.4 1.3 1.3c3.9-4.3 8.2-5.4 12.7-3.7 1 .4 2.5 1.2 4.2 2.5l-.7 1c-2.1-1.6-3.9-2.3-3.9-2.3-6-2.3-10.1 2.1-11.8 4.1l-.3.4-.5-.5c-.7-.7-1.4-1.4-2.2-2.3l-.3-.3 1.5-.2z" style="fill:url(#SVGID_6_)"/><linearGradient id="SVGID_7_" x1="182.978" x2="194.481" y1="211.623" y2="206.856" gradientTransform="rotate(-112.768 77.213 221.02)" gradientUnits="userSpaceOnUse"><stop offset="0" style="stop-color:#d1bb72"/><stop offset="1" style="stop-color:#a3804c"/></linearGradient><path d="m21.7 131.5.3-.3c2.9-2.7 5.1-6.3 4-10.7-.6-2.6-1.5-4-3.1-6.3l1-.7c1.4 2.2 2.5 3.7 3.3 6.8 1 4.8-1 8.5-3.8 11.2h-1.7z" style="fill:url(#SVGID_7_)"/><linearGradient id="SVGID_8_" x1="38.487" x2="52.545" y1="134.473" y2="148.531" gradientUnits="userSpaceOnUse"><stop offset="0" style="stop-color:#99773d"/><stop offset=".168" style="stop-color:#9c7b40"/><stop offset=".324" style="stop-color:#a5864a"/><stop offset=".475" style="stop-color:#b4995b"/><stop offset=".622" style="stop-color:#c9b372"/><stop offset=".695" style="stop-color:#d6c380"/><stop offset=".698" style="stop-color:#d5c27f"/><stop offset=".781" style="stop-color:#bba162"/><stop offset=".861" style="stop-color:#a88a4e"/><stop offset=".936" style="stop-color:#9d7c41"/><stop offset="1" style="stop-color:#99773d"/></linearGradient><path d="m50.5 150.6-.6-.3c-1-.4-2.3-.9-3.3-1.4l-.4-.2.2-.4c1.6-3.6 2.7-6.8.1-10.6-1.8-2.4-3.3-3.8-5.6-5.4l.7-1c2.1 1.5 4.1 3.2 6 5.8 2.7 4 2 7.1.4 10.7.9.4.9.4 1.7.7l.8 2.1z" style="fill:url(#SVGID_8_)"/><path d="M49.7 148.7c2-5.5 5.7-7.7 10.5-7.9.9 0 2.5.2 4.7.6l-.3 1.2c-2.3-.5-4.6-.5-4.6-.5-6.4.2-8.6 5.6-9.4 8.1l-.2.4-.7-1.9z" class="st8"/><linearGradient id="SVGID_9_" x1="81.178" x2="63.352" y1="154.105" y2="143.814" gradientUnits="userSpaceOnUse"><stop offset="0" style="stop-color:#99773d"/><stop offset=".125" style="stop-color:#9b793f"/><stop offset=".17" style="stop-color:#a07e46"/><stop offset=".202" style="stop-color:#aa8851"/><stop offset=".228" style="stop-color:#b79662"/><stop offset=".234" style="stop-color:#bc9b68"/><stop offset=".257" style="stop-color:#b79662"/><stop offset=".341" style="stop-color:#aa8851"/><stop offset=".445" style="stop-color:#a07e46"/><stop offset=".592" style="stop-color:#9b793f"/><stop offset="1" style="stop-color:#99773d"/></linearGradient><path d="M80.2 155.7h-4.8v-.5c.1-4-.1-7.6-4-10.1-2.6-1.6-4.3-2-7-2.5l.2-1.2c2.8.5 4.9 1.1 7.7 2.7 4.1 2.7 4.6 6.1 4.5 10.1h1.8l1.6 1.5z" style="fill:url(#SVGID_9_)"/><path d="M78.7 154.2c-.1-5.8 2.2-9 6.5-11.1 1-.5 2.6-1.1 4.8-1.5l.3 1.2c-2.3.5-4.1 1.4-4.1 1.4-5.9 2.7-6.2 8.5-6 11.1v.5l-1.5-1.6z" style="fill:#9a763c"/><linearGradient id="SVGID_10_" x1="89.883" x2="109.778" y1="145.834" y2="145.834" gradientUnits="userSpaceOnUse"><stop offset="0" style="stop-color:#927038"/><stop offset=".363" style="stop-color:#947239"/><stop offset=".518" style="stop-color:#9b793c"/><stop offset=".634" style="stop-color:#a88541"/><stop offset=".729" style="stop-color:#b99548"/><stop offset=".734" style="stop-color:#b79347"/><stop offset=".81" style="stop-color:#a78442"/><stop offset=".893" style="stop-color:#9d7a3e"/><stop offset="1" style="stop-color:#9a773d"/></linearGradient><path d="m109.8 149-.6.3c-.9.4-2.2.9-3.3 1.4l-.4.2-.2-.4c-1.4-3.7-2.9-7-7.4-7.8-3-.5-4.9-.4-7.6.3l-.3-1.2c2.6-.6 5.2-1 8.3-.5 4.8.9 6.5 3.9 7.9 7.6.9-.4.9-.3 1.7-.7l1.9.8z" style="fill:url(#SVGID_10_)"/><path d="M107.7 148c-2.5-5.3-1.4-9.4 1.8-12.9.7-.7 1.8-1.7 3.6-2.9l.9 1.1c-2 1.3-3.4 2.7-3.4 2.7-4.4 4.7-2.2 10.2-1.1 12.5l.2.4-2-.9z" class="st8"/><path d="m134.5 131.4-.5.5-2.6 2.6-.3.3-.3-.3c-2.7-2.9-5.5-5.3-10-4.4-2.9.7-4.5 1.6-6.8 3.3l-1-1.1c2.2-1.5 4.2-2.7 7.3-3.5 4.8-1 8 1 10.7 3.8.7-.7.7-.7 1.3-1.4l2.2.2z" class="st8"/><linearGradient id="SVGID_11_" x1="127.569" x2="137.604" y1="118.248" y2="128.283" gradientUnits="userSpaceOnUse"><stop offset="0" style="stop-color:#9a773d"/><stop offset=".481" style="stop-color:#9c793f"/><stop offset=".704" style="stop-color:#a48144"/><stop offset=".874" style="stop-color:#b08d4d"/><stop offset="1" style="stop-color:#c09d58"/></linearGradient><path d="M132.4 131.3c-4.3-3.9-4.9-8.1-3.2-12.6.4-.9 1-2.3 2.3-4.4l1.1.6c-1.4 2.2-2.2 4.1-2.2 4.1-2.3 6 1.8 10.3 3.7 12l.4.3h-2.1z" style="fill:url(#SVGID_11_)"/><linearGradient id="SVGID_12_" x1="-329.124" x2="-314.39" y1="967.297" y2="961.191" gradientTransform="rotate(134.733 87.754 633.503)" gradientUnits="userSpaceOnUse"><stop offset="0" style="stop-color:#9a773d"/><stop offset="1" style="stop-color:#9a773d"/></linearGradient><path d="m150.6 105.1-.3.6c-.4 1-.9 2.3-1.4 3.3l-.2.4-.4-.2c-3.6-1.6-7.1-2.8-10.9-.2-2.4 1.8-3.4 3.4-4.9 5.9l-1.1-.6c1.4-2.2 2.6-4.3 5.2-6.2 4-2.7 7.7-2.4 11.3-.8.4-.9.3-.8.7-1.6l2-.6z" style="fill:url(#SVGID_12_)"/><linearGradient id="SVGID_13_" x1="-330.103" x2="-335.906" y1="975.192" y2="962.595" gradientTransform="rotate(134.733 87.754 633.503)" gradientUnits="userSpaceOnUse"><stop offset="0" style="stop-color:#9a773d"/><stop offset=".198" style="stop-color:#9e7b41"/><stop offset=".397" style="stop-color:#a8874d"/><stop offset=".597" style="stop-color:#ba9a61"/><stop offset=".723" style="stop-color:#c9aa72"/><stop offset=".815" style="stop-color:#c6a76f"/><stop offset=".882" style="stop-color:#be9e66"/><stop offset=".941" style="stop-color:#b08f56"/><stop offset=".994" style="stop-color:#9c7a40"/><stop offset="1" style="stop-color:#99773d"/></linearGradient><path d="M148.6 105.8c-5.5-2-7.7-5.6-7.8-10.4 0-.9 0-2.2.3-4.5l1.3.2c-.3 2.4-.2 4.3-.2 4.3.2 6.4 5.6 8.6 8.1 9.5l.4.2-2.1.7z" style="fill:url(#SVGID_13_)"/><path d="M155.2 75.1v4.8h-.5c-4-.1-7.7.2-10.2 4.1-1.6 2.6-1.8 4.5-2.3 7.3l-1.3-.2c.4-2.6.8-5.2 2.5-7.9 2.7-4.1 6.2-4.7 10.2-4.7v-1.9l1.6-1.5z" class="st8"/><linearGradient id="SVGID_14_" x1="-530.051" x2="-519.54" y1="1040.178" y2="1035.822" gradientTransform="scale(-1) rotate(-67.767 -1161.936 203.092)" gradientUnits="userSpaceOnUse"><stop offset="0" style="stop-color:#b2956a"/><stop offset=".268" style="stop-color:#b5996d"/><stop offset=".523" style="stop-color:#bfa475"/><stop offset=".772" style="stop-color:#cfb782"/><stop offset="1" style="stop-color:#e4d094"/></linearGradient><path d="M153.6 76.5c-5.9.1-9.2-2.3-11.4-6.6-.3-.9-.8-1.9-1.3-4.5l1.2-.2c.5 2.3 1.3 4 1.3 4 2.7 5.9 8.8 6 11.4 5.9h.5l-1.7 1.4z" style="fill:url(#SVGID_14_)"/><linearGradient id="SVGID_15_" x1="147.518" x2="158.799" y1="-5.646" y2="-5.646" gradientTransform="rotate(-67.5 154.278 140.678)" gradientUnits="userSpaceOnUse"><stop offset="0" style="stop-color:#b18a49"/><stop offset="1" style="stop-color:#99773d"/></linearGradient><path d="M24.2 83.1c-6.7-1.2-7.7-.4-8.1 1.3-.3 1.4.3 5.3.4 5.8l-1.1.3c-.1-.3-1-4.9-.4-6.6.7-2.2 2.5-3.1 9.1-2l.1 1.2z" style="fill:url(#SVGID_15_)"/><linearGradient id="SVGID_16_" x1="15.451" x2="26.659" y1="93.944" y2="93.944" gradientUnits="userSpaceOnUse"><stop offset="0" style="stop-color:#b18a49"/><stop offset=".11" style="stop-color:#b69150"/><stop offset=".275" style="stop-color:#c4a465"/><stop offset=".474" style="stop-color:#dbc286"/><stop offset=".545" style="stop-color:#e4cf94"/><stop offset="1" style="stop-color:#ddce98"/></linearGradient><path d="M26.7 94.9c-.7.4-1.8 1-2.9 1.6-1.3.7-3.3 1.7-4.8.7h-.1c-1.8-1.1-3-4.2-3.5-6.7l1.1-.3c.5 1.9 1.6 5 3.1 6 1.3.6 2.4 0 3.6-.7 1-.6 2.2-1.3 3-1.9l.5 1.3z" style="fill:url(#SVGID_16_)"/><linearGradient id="SVGID_17_" x1="212.944" x2="223.866" y1="79.623" y2="79.623" gradientTransform="rotate(-90 136.374 189.822)" gradientUnits="userSpaceOnUse"><stop offset="0" style="stop-color:#a68241"/><stop offset="1" style="stop-color:#99773d"/></linearGradient><path d="M30.3 103.3c-6.6 1.5-7.2 2.3-7 4.1.2 1.7 2.6 5.2 2.7 5.4l-.8.5c-.2-.2-2.8-3.9-2.9-5.8-.2-2.3 1.1-3.6 7.7-5.1l.3.9z" style="fill:url(#SVGID_17_)"/><linearGradient id="SVGID_18_" x1="223.64" x2="231.002" y1="133.105" y2="133.105" gradientTransform="scale(-1) rotate(67.5 283.094 -184.304)" gradientUnits="userSpaceOnUse"><stop offset="0" style="stop-color:#ddce98"/><stop offset=".384" style="stop-color:#e4cf94"/><stop offset=".386" style="stop-color:#e4cf94"/><stop offset=".564" style="stop-color:#c9ad70"/><stop offset=".731" style="stop-color:#b69656"/><stop offset=".881" style="stop-color:#aa8746"/><stop offset="1" style="stop-color:#a68241"/></linearGradient><path d="M36.9 113c-.6.9-1.3 1.8-2 2.8-.9 1.1-2.2 2.5-4.1 2.4h-.1c-1.8-.2-4.3-2.8-5.8-4.9l.8-.5c1.1 1.5 3.6 4.2 5.1 4.4 1.4.1 2.3-1.1 3.1-2.1.7-.9 1.5-2 2.1-3l.9.9z" style="fill:url(#SVGID_18_)"/><linearGradient id="SVGID_19_" x1="257.94" x2="268.948" y1="208.193" y2="208.193" gradientTransform="scale(-1) rotate(67.5 360.516 -186.865)" gradientUnits="userSpaceOnUse"><stop offset="0" style="stop-color:#b99548"/><stop offset="1" style="stop-color:#9a773d"/></linearGradient><path d="M43.7 119.6c-5.5 3.9-5.9 4.8-5.1 6.3 1.1 2 4.5 4 4.6 4.1l-.6.9c-.1-.1-4.2-2.5-5.2-4.9-.9-2.1 0-3.3 5.4-7.1l.9.7z" style="fill:url(#SVGID_19_)"/><linearGradient id="SVGID_20_" x1="215.997" x2="223.438" y1="269.111" y2="269.111" gradientTransform="rotate(-134.999 105.459 234.62)" gradientUnits="userSpaceOnUse"><stop offset="0" style="stop-color:#ddce98"/><stop offset=".384" style="stop-color:#e4cf94"/><stop offset=".485" style="stop-color:#dac282"/><stop offset=".698" style="stop-color:#c8a963"/><stop offset=".877" style="stop-color:#bd9a4f"/><stop offset="1" style="stop-color:#b99548"/></linearGradient><path d="M53.4 125.9c-.2 1.1-.5 2.1-.7 3.4-.4 1.7-1 3.6-2.8 3.9h-.1c-1.9.3-5.2-1.1-7.1-2.4l.6-.9c1.7 1.2 4.6 2.4 6.4 2.2 1.1-.2 1.6-2 2-3.3.3-1.2.8-3.5.8-3.5l.9.6z" style="fill:url(#SVGID_20_)"/><linearGradient id="SVGID_21_" x1="266.098" x2="276.949" y1="368.113" y2="368.113" gradientTransform="rotate(-134.999 118.83 295.06)" gradientUnits="userSpaceOnUse"><stop offset="0" style="stop-color:#cdb079"/><stop offset=".384" style="stop-color:#e4cf94"/><stop offset="1" style="stop-color:#9a773d"/></linearGradient><path d="M62.1 129.4c-3.6 5.7-3.4 6.5-2 7.6 1.3 1.1 5.2 1.9 5.6 2l-.2 1c-1.1-.1-5-1.1-6.4-2.3-1.8-1.5-1.6-2.9 2-8.6l1 .3z" style="fill:url(#SVGID_21_)"/><linearGradient id="SVGID_22_" x1="167.89" x2="163.449" y1="413.825" y2="424.548" gradientTransform="scale(-1) rotate(22.5 1445.771 -453.73)" gradientUnits="userSpaceOnUse"><stop offset="0" style="stop-color:#cdb079"/><stop offset=".382" style="stop-color:#e4cf94"/><stop offset=".517" style="stop-color:#e1cb90"/><stop offset=".653" style="stop-color:#d8c084"/><stop offset=".789" style="stop-color:#c9ad70"/><stop offset=".925" style="stop-color:#b49454"/><stop offset="1" style="stop-color:#a68241"/></linearGradient><path d="M73.5 131.6c.3 1.1.6 2.5.7 3.6.1 1.4 0 3-1.2 4.2h-.1c-1.4 1.1-5.3 1.1-7.4.7l.1-1c1.9.3 5.6.3 6.6-.6.7-.5.9-2 .8-3.3-.1-.8-.4-2.6-.8-3.7l1.3.1z" style="fill:url(#SVGID_22_)"/><linearGradient id="SVGID_23_" x1="231.539" x2="242.541" y1="539.742" y2="544.299" gradientTransform="scale(-1) rotate(22.5 1783.764 -606.258)" gradientUnits="userSpaceOnUse"><stop offset="0" style="stop-color:#ddce98"/><stop offset=".384" style="stop-color:#e4cf94"/><stop offset=".422" style="stop-color:#d7c085"/><stop offset=".503" style="stop-color:#c1a56b"/><stop offset=".591" style="stop-color:#b09156"/><stop offset=".691" style="stop-color:#a38248"/><stop offset=".81" style="stop-color:#9c7a40"/><stop offset="1" style="stop-color:#9a773d"/></linearGradient><path d="M83.3 131.4c-1.2 6.7-.6 7.4 1.1 8 1.6.5 5.8-.4 6-.5l.2.9c-.3.1-4.9 1.3-6.9.5-2.2-.8-2.8-2.2-1.7-8.8l1.3-.1z" style="fill:url(#SVGID_23_)"/><linearGradient id="SVGID_24_" x1="62.624" x2="69.978" y1="567.98" y2="567.98" gradientTransform="rotate(180 80.177 351.18)" gradientUnits="userSpaceOnUse"><stop offset="0" style="stop-color:#a68241"/><stop offset=".616" style="stop-color:#e4cf94"/><stop offset="1" style="stop-color:#ddce98"/></linearGradient><path d="M94.6 129c.7.9 1.5 2 2.1 2.9.7 1.3 1.5 3 .8 4.5v.1c-1 1.7-4.6 2.8-6.8 3.3l-.2-.9c1.8-.4 5.2-1.6 5.9-3 .5-.8-.1-2.3-.7-3.5-.6-1.1-1.3-2.2-2-3.1l.9-.3z" style="fill:url(#SVGID_24_)"/><linearGradient id="SVGID_25_" x1="148.036" x2="159.534" y1="712.397" y2="716.582" gradientTransform="rotate(180 130.346 422.343)" gradientUnits="userSpaceOnUse"><stop offset="0" style="stop-color:#ddce98"/><stop offset=".233" style="stop-color:#e4cf94"/><stop offset=".413" style="stop-color:#d2b77a"/><stop offset=".641" style="stop-color:#c09e5f"/><stop offset=".844" style="stop-color:#b58f4f"/><stop offset="1" style="stop-color:#b18a49"/></linearGradient><path d="M103.2 125.3c1.5 6.6 2.3 7.1 4 6.9 1.7-.2 5-2.4 5.3-2.7l.8.9c-.4.4-4.2 2.9-6.3 3-2.3.1-3.6-.9-5.1-7.5l1.3-.6z" style="fill:url(#SVGID_25_)"/><linearGradient id="SVGID_26_" x1="-79.24" x2="-74.709" y1="700.129" y2="689.191" gradientTransform="scale(-1) rotate(-22.5 -2154.997 380.908)" gradientUnits="userSpaceOnUse"><stop offset="0" style="stop-color:#9a773d"/><stop offset=".181" style="stop-color:#a07e44"/><stop offset=".439" style="stop-color:#af9056"/><stop offset=".741" style="stop-color:#c9af74"/><stop offset="1" style="stop-color:#e4cf94"/></linearGradient><path d="M112.9 118.6c1.1.7 1.9 1.3 2.8 2 1.1.9 2.7 2.4 2.5 4.1v.1c-.5 1.9-3.1 4.4-4.9 5.6l-.8-.8c1.5-1.1 4.3-4 4.4-5 .3-.9-.9-2.3-1.9-3.1-.9-.7-2-1.6-3-2.1l.9-.8z" style="fill:url(#SVGID_26_)"/><linearGradient id="SVGID_27_" x1="21.733" x2="32.662" y1="866.807" y2="866.807" gradientTransform="scale(-1) rotate(-22.5 -2513.9 759.677)" gradientUnits="userSpaceOnUse"><stop offset="0" style="stop-color:#d1bb72"/><stop offset=".388" style="stop-color:#d3b250"/><stop offset="1" style="stop-color:#ad8b52"/></linearGradient><path d="M119.5 111.7c3.8 4.8 4.8 5.6 6.3 4.8 1.5-.8 3.7-4.5 3.8-4.6l1.1.8c-.1.1-2.7 4.3-4.4 5.1-2.1 1-3.6.2-7.5-5.3l.7-.8z" style="fill:url(#SVGID_27_)"/><linearGradient id="SVGID_28_" x1="125.417" x2="133.267" y1="102.324" y2="110.174" gradientUnits="userSpaceOnUse"><stop offset="0" style="stop-color:#9a773d"/><stop offset=".332" style="stop-color:#9c793e"/><stop offset=".472" style="stop-color:#a38040"/><stop offset=".577" style="stop-color:#af8d44"/><stop offset=".663" style="stop-color:#c09e4a"/><stop offset=".73" style="stop-color:#d3b250"/><stop offset="1" style="stop-color:#d1bb72"/></linearGradient><path d="M125.9 101.9c1.2.2 2.6.5 3.5.8 1.4.4 3.6 1.1 4 2.8v.1c.4 1.9-1.5 5.4-2.7 7.2l-1-.8c1-1.6 2.7-4.7 2.4-6-.5-1.3-2-1.8-3.2-2.1-1.2-.3-2.4-.6-3.5-.8l.5-1.2z" style="fill:url(#SVGID_28_)"/><linearGradient id="SVGID_29_" x1="-136.229" x2="-124.937" y1="981.399" y2="981.399" gradientTransform="rotate(134.999 186.356 592.358)" gradientUnits="userSpaceOnUse"><stop offset="0" style="stop-color:#b99548"/><stop offset=".175" style="stop-color:#bc994d"/><stop offset=".37" style="stop-color:#c5a55a"/><stop offset=".573" style="stop-color:#d4b970"/><stop offset=".702" style="stop-color:#e0c982"/><stop offset="1" style="stop-color:#d7b95f"/></linearGradient><path d="M129.2 93.3c5.7 3.6 6.4 3.6 7.7 2.3 1.1-1.2 1.8-5.7 1.9-5.9l1.2.2c-.1.5-.8 5.4-2.1 6.8-1.5 1.8-3.5 1.6-9.1-2l.4-1.4z" style="fill:url(#SVGID_29_)"/><linearGradient id="SVGID_30_" x1="-443.182" x2="-438.605" y1="837.638" y2="826.587" gradientTransform="scale(-1) rotate(-67.5 -974.715 146.537)" gradientUnits="userSpaceOnUse"><stop offset="0" style="stop-color:#99773d"/><stop offset=".356" style="stop-color:#9d7b3e"/><stop offset=".704" style="stop-color:#a98642"/><stop offset="1" style="stop-color:#b99548"/></linearGradient><path d="M131.3 81.6c1.2-.2 2.4-.4 3.5-.5 1.4-.1 3.6-.2 4.6 1.2v.1c1 1.7.9 5.4.6 7.5l-1.2-.2c.3-1.9.3-4.9-.5-6.4-.8-1.1-2.1-1.1-3.4-1-.9.1-2.6.3-3.7.6l.1-1.3z" style="fill:url(#SVGID_30_)"/><linearGradient id="SVGID_31_" x1="42.521" x2="53.469" y1="26.362" y2="26.362" gradientUnits="userSpaceOnUse"><stop offset="0" style="stop-color:#9a773d"/><stop offset="1" style="stop-color:#cdb666"/></linearGradient><path d="M52.5 30.5c-1.6-6.7-2.7-7.2-4.5-7-1.7.2-4.7 2.3-4.9 2.4l-.6-.9c.6-.5 3.8-2.6 5.7-2.7 2.3-.2 3.7 1.1 5.2 7.7l-.9.5z" style="fill:url(#SVGID_31_)"/><linearGradient id="SVGID_32_" x1="58.107" x2="65.357" y1="21.216" y2="21.216" gradientUnits="userSpaceOnUse"><stop offset="0" style="stop-color:#bb9d32"/><stop offset="1" style="stop-color:#9a773d"/></linearGradient><path d="M61.1 26.8c-2-2.6-3.5-5.8-2.8-7.6v-.1c1.1-1.7 4.6-3.1 6.8-3.6l.2 1c-1.6.3-4.8 1.5-5.9 2.9-.7 1 .4 4 2.7 7l-1 .4z" style="fill:url(#SVGID_32_)"/><linearGradient id="SVGID_33_" x1="89.994" x2="100.954" y1="126.803" y2="126.803" gradientTransform="rotate(22.5 353.847 8)" gradientUnits="userSpaceOnUse"><stop offset="0" style="stop-color:#9a773d"/><stop offset=".418" style="stop-color:#a58439"/><stop offset="1" style="stop-color:#bb9d32"/></linearGradient><path d="M72.2 24.5c1.1-6.6.5-7.7-1.2-8.2-1.6-.5-5.4.3-5.7.4l-.3-1c.3-.1 4.9-1.1 6.8-.3 2.2.8 2.4 2.6 1.4 9.1h-1z" style="fill:url(#SVGID_33_)"/><linearGradient id="SVGID_34_" x1="105.972" x2="113.076" y1="121.66" y2="121.66" gradientTransform="rotate(22.5 353.847 8)" gradientUnits="userSpaceOnUse"><stop offset="0" style="stop-color:#b99348"/><stop offset=".023" style="stop-color:#b89248"/><stop offset=".617" style="stop-color:#a27e40"/><stop offset="1" style="stop-color:#9a773d"/></linearGradient><path d="M81.9 24.4c-.2-1.1-1.8-5.8.4-8h.1c1.6-1.3 6.3-.9 7.5-.7l-.2.9c-.9-.1-5.4-.6-6.5.6-1.6 1.6-.4 6.3-.2 7.3l-1.1-.1z" style="fill:url(#SVGID_34_)"/><linearGradient id="SVGID_35_" x1="183.64" x2="194.64" y1="234.171" y2="234.171" gradientTransform="rotate(45.001 399.23 11.137)" gradientUnits="userSpaceOnUse"><stop offset="0" style="stop-color:#9a773d"/><stop offset=".15" style="stop-color:#9f7e45"/><stop offset=".383" style="stop-color:#ad915b"/><stop offset=".671" style="stop-color:#c5af7f"/><stop offset="1" style="stop-color:#e5dab1"/></linearGradient><path d="M93.2 26.5c3.5-5.7 3.6-7.1 2.2-8.2-1.3-1.1-5.1-1.6-5.8-1.7l.1-.9c1.2.1 5.1.8 6.5 2 1.8 1.5 1.4 3.5-2.1 9.1l-.9-.3z" style="fill:url(#SVGID_35_)"/><linearGradient id="SVGID_36_" x1="201.087" x2="206.671" y1="225.53" y2="231.114" gradientTransform="rotate(45.001 399.23 11.137)" gradientUnits="userSpaceOnUse"><stop offset="0" style="stop-color:#9a773d"/><stop offset="1" style="stop-color:#9a773d"/></linearGradient><path d="M102.1 30.1c.2-1 .5-2.1.8-3.4.4-1.4 1-3.3 2.6-3.9h.1c2.2-.8 5.7 1.1 7.3 2l-.6.8c-.8-.5-4-2.6-6.3-1.9-1.3.5-1.8 2-2.2 3.2-.3 1.1-.6 2.4-.9 3.5l-.8-.3z" style="fill:url(#SVGID_36_)"/><linearGradient id="SVGID_37_" x1="325.917" x2="336.996" y1="318.922" y2="323.511" gradientTransform="rotate(67.5 440.44 13.96)" gradientUnits="userSpaceOnUse"><stop offset="0" style="stop-color:#9a773d"/><stop offset=".152" style="stop-color:#9e7c43"/><stop offset=".36" style="stop-color:#a98b55"/><stop offset=".6" style="stop-color:#bca471"/><stop offset=".862" style="stop-color:#d6c699"/><stop offset="1" style="stop-color:#e5dab1"/></linearGradient><path d="M111.6 36.2c5.4-3.9 6-5.2 5.2-6.7-.8-1.5-4.3-3.7-4.5-3.8l.6-.8c.3.2 4.1 2.6 4.9 4.3 1 2.1-.2 3.9-5.5 7.7l-.7-.7z" style="fill:url(#SVGID_37_)"/><linearGradient id="SVGID_38_" x1="344.004" x2="347.531" y1="312.654" y2="321.17" gradientTransform="rotate(67.5 440.44 13.96)" gradientUnits="userSpaceOnUse"><stop offset="0" style="stop-color:#b99548"/><stop offset=".173" style="stop-color:#b38f46"/><stop offset="1" style="stop-color:#9a773d"/></linearGradient><path d="M118.4 42.9c.6-.8 1.4-1.8 2.2-2.8 1.1-1.2 2.2-2.2 3.9-2.2 2.3.2 4.8 2.7 6 4.5l-1 .7c-.8-1.3-2.9-3.9-5.2-4.1-1.1-.1-2.1 1-3 1.9-.8 1-1.6 2.2-2.2 2.9l-.7-.9z" style="fill:url(#SVGID_38_)"/><linearGradient id="SVGID_39_" x1="500.787" x2="511.909" y1="373.37" y2="377.976" gradientTransform="rotate(90 481.612 23.94)" gradientUnits="userSpaceOnUse"><stop offset=".003" style="stop-color:#b99548"/><stop offset=".162" style="stop-color:#bb984d"/><stop offset=".355" style="stop-color:#c1a25c"/><stop offset=".566" style="stop-color:#cbb174"/><stop offset=".787" style="stop-color:#d9c796"/><stop offset="1" style="stop-color:#eae0be"/></linearGradient><path d="M125 52.4c6.5-1.5 6.9-2.5 6.8-4.3-.2-1.7-2-4.7-2.2-5l1-.7c.4.4 2.4 3.9 2.6 5.8.2 2.3-1.1 3.6-7.5 5.1l-.7-.9z" style="fill:url(#SVGID_39_)"/><linearGradient id="SVGID_40_" x1="690.327" x2="701.003" y1="381.528" y2="381.528" gradientTransform="scale(-1) rotate(-67.5 -58.19 778.558)" gradientUnits="userSpaceOnUse"><stop offset=".003" style="stop-color:#b18a49"/><stop offset=".217" style="stop-color:#b38d4d"/><stop offset=".411" style="stop-color:#b99658"/><stop offset=".597" style="stop-color:#c3a46a"/><stop offset=".777" style="stop-color:#d2b984"/><stop offset=".953" style="stop-color:#e4d4a5"/><stop offset="1" style="stop-color:#eadcaf"/></linearGradient><path d="M131.2 72.4c6.3.9 7.4.4 8-1.3.5-1.6-.2-4.7-.3-5.3l1.1-.3c0 .1.9 4.2.2 6.1-.8 2.2-2.4 2.9-8.9 1.8l-.1-1z" style="fill:url(#SVGID_40_)"/><linearGradient id="SVGID_41_" x1="523.073" x2="517.494" y1="373.276" y2="367.697" gradientTransform="rotate(90 481.612 23.94)" gradientUnits="userSpaceOnUse"><stop offset="0" style="stop-color:#9a773d"/><stop offset=".215" style="stop-color:#a68143"/><stop offset=".519" style="stop-color:#ae8848"/><stop offset="1" style="stop-color:#b18a49"/></linearGradient><path d="M128.8 61.2c.9-.5 1.9-1.1 3-1.8 1.3-.7 3-1.5 4.6-.8l.3.2c2 1.1 2.9 4.9 3.3 6.7l-1.1.3c-.3-1.1-.9-5.1-2.8-6.2-1.3-.6-2.6.1-3.8.7-1 .6-2.1 1.3-3.1 1.9l-.4-1z" style="fill:url(#SVGID_41_)"/><linearGradient id="SVGID_42_" x1="46.516" x2="57.195" y1="-25.082" y2="-25.082" gradientTransform="rotate(-22.5 209.55 62.303)" gradientUnits="userSpaceOnUse"><stop offset="0" style="stop-color:#9a773d"/><stop offset="1" style="stop-color:#bd9f70"/></linearGradient><path d="M36 44c-3.8-5.1-5.1-5.7-6.7-4.8-1.5.8-3.4 4-3.5 4.1l-.9-.7c.1-.2 2.3-3.6 4-4.5 2.1-1 3.9-.5 7.8 5l-.7.9z" style="fill:url(#SVGID_42_)"/><linearGradient id="SVGID_43_" x1="62.709" x2="67.44" y1="-25.572" y2="-36.993" gradientTransform="rotate(-22.5 209.55 62.303)" gradientUnits="userSpaceOnUse"><stop offset="0" style="stop-color:#b7982f"/><stop offset="1" style="stop-color:#9a773d"/></linearGradient><path d="M42.5 37.3c-.8-.5-1.8-1.3-2.8-2.1-1.1-.9-2.7-2.1-2.5-4v-.1c.3-1.8 3.3-4.8 5.4-6.2l.5.9c-1.7 1.4-4.4 3.6-4.8 5.4-.2 1.2 1.1 2.2 2.1 3 1 .8 2.2 1.7 2.9 2.3l-.8.8z" style="fill:url(#SVGID_43_)"/><linearGradient id="SVGID_44_" x1="100.37" x2="110.319" y1="120.463" y2="107.493" gradientTransform="rotate(22.508 354.601 -25.587)" gradientUnits="userSpaceOnUse"><stop offset="0" style="stop-color:#cdb666"/><stop offset=".283" style="stop-color:#dccc94"/><stop offset=".525" style="stop-color:#eae0be"/><stop offset=".761" style="stop-color:#dbca90"/><stop offset="1" style="stop-color:#cdb666"/></linearGradient><path d="M77 2.1c-.4 5.9-2.5 9.1-6.9 11.1-.9.3-2 .9-4.8 1.5l-.3-1.1c2-.4 4.3-1.4 4.3-1.4 5.9-2.6 6.2-8.7 6.1-11.2V.5L77 2.1z" style="fill:url(#SVGID_44_)"/><linearGradient id="SVGID_45_" x1="109.383" x2="123.366" y1="111.941" y2="106.147" gradientTransform="rotate(22.508 354.601 -25.587)" gradientUnits="userSpaceOnUse"><stop offset="0" style="stop-color:#eae0be"/><stop offset=".2" style="stop-color:#b7982f"/><stop offset=".369" style="stop-color:#c0a445"/><stop offset=".565" style="stop-color:#c7ae58"/><stop offset=".77" style="stop-color:#ccb462"/><stop offset="1" style="stop-color:#cdb666"/></linearGradient><path d="M75.4.4h4.8v.5c-.1 4 .1 7.6 3.9 10.2 2.6 1.6 4.4 2.1 6.5 2.5l-.3 1.1c-1.9-.3-4.3-1-7.1-2.7-4.1-2.7-4.7-6-4.6-10H77L75.4.4z" style="fill:url(#SVGID_45_)"/><linearGradient id="SVGID_46_" x1="208.198" x2="219.097" y1="217.405" y2="212.889" gradientTransform="rotate(45.009 403.357 -26.567)" gradientUnits="userSpaceOnUse"><stop offset="0" style="stop-color:#cdb666"/><stop offset=".187" style="stop-color:#d6c483"/><stop offset=".398" style="stop-color:#ded09c"/><stop offset=".589" style="stop-color:#e3d7ac"/><stop offset=".741" style="stop-color:#e5dab1"/></linearGradient><path d="M106 7c-2.2 5.4-6 8.1-10.8 8.3-.9 0-1.9 0-4.9-.5l.2-1.1c2.5.5 4.7.4 4.7.4 6.4-.2 8.9-6 9.8-8.4l.2-.4.8 1.7z" style="fill:url(#SVGID_46_)"/><linearGradient id="SVGID_47_" x1="217.59" x2="231.575" y1="213.282" y2="207.487" gradientTransform="rotate(45.009 403.357 -26.567)" gradientUnits="userSpaceOnUse"><stop offset=".003" style="stop-color:#f1e6c8"/><stop offset=".227" style="stop-color:#b99548"/><stop offset="1" style="stop-color:#cdb666"/></linearGradient><path d="m105.1 5.1.6.3c.9.4 2.2.9 3.3 1.4l.4.2-.2.4c-1.6 3.6-2.8 7.1-.3 10.9 1.8 2.4 3.8 3.8 5.1 4.7l-.7.9c-1.3-1.1-3.5-2.4-5.4-5-2.7-4-2-7.6-.4-11.2-.9-.4-.8-.3-1.6-.7l-.8-1.9z" style="fill:url(#SVGID_47_)"/><linearGradient id="SVGID_48_" x1="356.916" x2="367.903" y1="298.081" y2="293.528" gradientTransform="rotate(67.51 446.656 -20.123)" gradientUnits="userSpaceOnUse"><stop offset="0" style="stop-color:#cdb666"/><stop offset=".21" style="stop-color:#ceb869"/><stop offset=".393" style="stop-color:#d1bd74"/><stop offset=".565" style="stop-color:#d7c586"/><stop offset=".729" style="stop-color:#dfd19f"/><stop offset=".825" style="stop-color:#e5dab1"/><stop offset=".889" style="stop-color:#e4d9af"/><stop offset=".926" style="stop-color:#e2d5a6"/><stop offset=".956" style="stop-color:#ddce98"/><stop offset=".982" style="stop-color:#d7c484"/><stop offset="1" style="stop-color:#d1bb72"/></linearGradient><path d="M130.7 23.2c-3.9 4.3-8.2 5-12.7 3.3-.9-.4-2.3-1-4.5-2.6l.7-.9c2.1 1.7 4.1 2.5 4.1 2.5 6 2.3 10.5-2.1 12.2-4l.3-.4-.1 2.1z" style="fill:url(#SVGID_48_)"/><linearGradient id="SVGID_49_" x1="366.559" x2="380.592" y1="294.1" y2="288.285" gradientTransform="rotate(67.51 446.656 -20.123)" gradientUnits="userSpaceOnUse"><stop offset="0" style="stop-color:#e7d49d"/><stop offset=".081" style="stop-color:#cdb57d"/><stop offset=".183" style="stop-color:#b1935a"/><stop offset=".267" style="stop-color:#a07f45"/><stop offset=".322" style="stop-color:#9a773d"/><stop offset=".47" style="stop-color:#9e7c41"/><stop offset=".646" style="stop-color:#aa8a4d"/><stop offset=".834" style="stop-color:#bda260"/><stop offset="1" style="stop-color:#d3bd77"/></linearGradient><path d="m130.7 21.1.5.5c.7.7 1.7 1.7 2.5 2.6l.3.3-.3.3c-2.9 2.7-5.3 5.5-4.4 10 .7 2.9 1.9 4.6 2.8 6.4l-.9.5c-.9-1.5-2.3-3.6-3.1-6.7-1-4.8 1-7.7 3.8-10.5l-1.3-1.3.1-2.1z" style="fill:url(#SVGID_49_)"/><linearGradient id="SVGID_50_" x1="550.532" x2="564.781" y1="351.255" y2="345.351" gradientTransform="rotate(90.009 497.432 -4.434)" gradientUnits="userSpaceOnUse"><stop offset="0" style="stop-color:#dcc57b"/><stop offset=".076" style="stop-color:#c6ab67"/><stop offset=".178" style="stop-color:#ae8f50"/><stop offset=".268" style="stop-color:#9f7d42"/><stop offset=".333" style="stop-color:#9a773d"/><stop offset=".532" style="stop-color:#9f7d45"/><stop offset=".848" style="stop-color:#ab8c5c"/><stop offset="1" style="stop-color:#b2956a"/></linearGradient><path d="m148.4 45.9.3.6c.4.9.9 2.2 1.4 3.3l.2.4-.4.2c-3.7 1.4-7.1 3-8 7.5-.5 3-.1 4.9.3 7.3l-1.2.2c-.4-2.1-.9-4.5-.4-7.6.9-4.8 4.1-6.9 7.8-8.3-.4-.9-.3-.9-.6-1.7l.6-1.9z" style="fill:url(#SVGID_50_)"/><linearGradient id="SVGID_51_" x1="549.803" x2="542.73" y1="356.72" y2="349.649" gradientTransform="rotate(90.009 497.432 -4.434)" gradientUnits="userSpaceOnUse"><stop offset="0" style="stop-color:#d1bb72"/><stop offset=".237" style="stop-color:#d7c484"/><stop offset=".704" style="stop-color:#e5dab1"/><stop offset=".772" style="stop-color:#e1d4a5"/><stop offset=".893" style="stop-color:#d7c686"/><stop offset="1" style="stop-color:#cdb666"/></linearGradient><path d="M147.6 47.8c-5.3 2.5-9.7 1.5-13.2-1.8-.6-.7-1.6-1.8-3.2-4.4l.9-.5c1.3 2.2 3.1 4 3.1 4 4.7 4.4 10.4 2.1 12.7 1l.4-.2-.7 1.9z" style="fill:url(#SVGID_51_)"/><linearGradient id="SVGID_52_" x1="39.075" x2="49.778" y1="21.06" y2="10.357" gradientUnits="userSpaceOnUse"><stop offset="0" style="stop-color:#eae0be"/><stop offset=".919" style="stop-color:#d7b95f"/><stop offset="1" style="stop-color:#d1bb72"/></linearGradient><path d="M47.7 8.3c2.6 5.2 2.1 9.1-1.6 12.8-.7.7-1.7 1.6-4 3l-.7-1c2-1.3 3.8-2.9 3.8-2.9 4.4-4.7 1.8-10.1.7-12.4l-.2-.4 2 .9z" style="fill:url(#SVGID_52_)"/><linearGradient id="SVGID_53_" x1="63.014" x2="77.27" y1="44.327" y2="38.419" gradientTransform="matrix(1 -.00467 .00467 1 -14.707 -30.098)" gradientUnits="userSpaceOnUse"><stop offset="0" style="stop-color:#e3d7ac"/><stop offset=".375" style="stop-color:#c5aa4b"/><stop offset=".568" style="stop-color:#d2be75"/><stop offset=".667" style="stop-color:#d9c98d"/><stop offset=".776" style="stop-color:#d8c789"/><stop offset=".88" style="stop-color:#d4c27e"/><stop offset=".981" style="stop-color:#ceb86a"/><stop offset="1" style="stop-color:#cdb666"/></linearGradient><path d="m45.7 7.3.6-.3c.9-.4 2.2-.9 3.3-1.4l.4-.2.2.4c1.4 3.7 3.1 7 7.6 7.9 3 .5 5.2.1 7.2-.3l.3 1.1c-2.2.5-4.6.9-7.7.4-4.8-.9-6.8-3.8-8.3-7.5-.9.4-.9.4-1.7.7l-1.9-.8z" style="fill:url(#SVGID_53_)"/><linearGradient id="SVGID_54_" x1="20.968" x2="42.125" y1="24.769" y2="24.769" gradientUnits="userSpaceOnUse"><stop offset="0" style="stop-color:#e5dab1"/><stop offset=".057" style="stop-color:#e2d5a6"/><stop offset=".156" style="stop-color:#d9c789"/><stop offset=".286" style="stop-color:#cab15b"/><stop offset=".326" style="stop-color:#c5aa4b"/><stop offset=".431" style="stop-color:#c8af55"/><stop offset=".611" style="stop-color:#d1bb70"/><stop offset=".842" style="stop-color:#dfd09c"/><stop offset="1" style="stop-color:#eae0be"/></linearGradient><path d="m21 25.1.5-.5 2.6-2.6.3-.3.3.3c2.7 2.9 5.5 5.2 10 4.2 2.9-.7 5.1-2.1 6.8-3.2l.7 1c-2.1 1.3-4.1 2.7-7.2 3.4-4.8 1-7.7-.7-10.4-3.6-.7.7-.7.6-1.3 1.3H21z" style="fill:url(#SVGID_54_)"/><linearGradient id="SVGID_55_" x1="18.915" x2="26.989" y1="37.044" y2="28.969" gradientUnits="userSpaceOnUse"><stop offset="0" style="stop-color:#e1d4a5"/><stop offset="1" style="stop-color:#ad8b52"/></linearGradient><path d="M23.2 25.2c4.3 3.9 4.7 8.3 3.1 12.8-.4.9-.9 2-2.3 3.9l-1.1-.8c1.4-1.9 2.2-3.9 2.2-3.9 2.3-6-1.8-10.1-3.8-11.8l-.3-.3 2.2.1z" style="fill:url(#SVGID_55_)"/><linearGradient id="SVGID_56_" x1="95.531" x2="104.042" y1="-14.343" y2="-21.417" gradientTransform="rotate(-45.267 133.623 116.207)" gradientUnits="userSpaceOnUse"><stop offset="0" style="stop-color:#b7982f"/><stop offset=".029" style="stop-color:#c1a64b"/><stop offset=".077" style="stop-color:#d0bc75"/><stop offset=".115" style="stop-color:#dac98e"/><stop offset=".137" style="stop-color:#ddce98"/><stop offset=".205" style="stop-color:#d6c18e"/><stop offset=".274" style="stop-color:#d1b887"/><stop offset=".55" style="stop-color:#eee5ca"/><stop offset=".68" style="stop-color:#e8deba"/><stop offset=".859" style="stop-color:#e3d7aa"/><stop offset="1" style="stop-color:#e1d4a5"/></linearGradient><path d="m5 50.6.3-.6c.4-1 .9-2.3 1.4-3.3l.2-.4.4.2c3.6 1.6 7.1 2.6 10.8-.1 2.1-1.6 3.4-3.3 4.8-5.3l1.1.8c-1.7 2-2.7 3.7-5.2 5.6-4 2.7-7.4 2.2-11 .7-.4.9-.4.9-.7 1.7l-2.1.7z" style="fill:url(#SVGID_56_)"/><linearGradient id="SVGID_57_" x1="83.334" x2="93.859" y1="-10.86" y2="-15.221" gradientTransform="rotate(-45.267 133.623 116.207)" gradientUnits="userSpaceOnUse"><stop offset="0" style="stop-color:#c9b058"/><stop offset="1" style="stop-color:#9a773d"/></linearGradient><path d="M7.1 49.9c5.5 2 8 5.9 8.2 10.7 0 .9-.1 2.3-.5 4.5l-1.3-.3c.5-2.3.5-4.3.5-4.3-.2-6.4-6-8.9-8.5-9.7l-.5-.2 2.1-.7z" style="fill:url(#SVGID_57_)"/><linearGradient id="SVGID_58_" x1="139.39" x2="132.67" y1="14.184" y2="30.196" gradientTransform="rotate(-67.767 115.632 148.544)" gradientUnits="userSpaceOnUse"><stop offset="0" style="stop-color:#d1bb72"/><stop offset=".082" style="stop-color:#c2a761"/><stop offset=".186" style="stop-color:#b59653"/><stop offset=".315" style="stop-color:#ad8b48"/><stop offset=".496" style="stop-color:#a78443"/><stop offset="1" style="stop-color:#a68241"/></linearGradient><path d="M1.8 77v1.7c4 .4 7.1 1.5 9.1 3.5 2.2 2.1 2.8 4.6 2.8 4.6l-1.2.3c-.6-1.9-1.8-3.5-2.6-4.2C5.7 79.5.4 80 .4 80v-4.4L1.8 77z" style="fill:url(#SVGID_58_)"/><linearGradient id="SVGID_59_" x1="140.981" x2="152.313" y1="21.427" y2="16.795" gradientTransform="rotate(-67.767 115.632 148.544)" gradientUnits="userSpaceOnUse"><stop offset="0" style="stop-color:#c9b058"/><stop offset=".003" style="stop-color:#cab25b"/><stop offset=".032" style="stop-color:#d4c07a"/><stop offset=".062" style="stop-color:#dbcc92"/><stop offset=".095" style="stop-color:#e1d4a4"/><stop offset=".129" style="stop-color:#e4d8ae"/><stop offset=".172" style="stop-color:#e5dab1"/><stop offset=".332" style="stop-color:#e2d5a6"/><stop offset=".612" style="stop-color:#d9c78a"/><stop offset=".975" style="stop-color:#cab25b"/><stop offset="1" style="stop-color:#c9b058"/></linearGradient><path d="M.4 75.6h.5c4 .1 7.6-.1 10.1-4 1.6-2.6 1.9-3.9 2.5-6.9l1.3.3c-.5 2.4-1 4.8-2.7 7.5-2.7 4.1-6.4 4.6-10.3 4.5L.4 75.6z" style="fill:url(#SVGID_59_)"/><linearGradient id="SVGID_60_" x1="84.405" x2="92.036" y1="-45.612" y2="-37.982" gradientTransform="rotate(-45.001 179.997 90.953)" gradientUnits="userSpaceOnUse"><stop offset="0" style="stop-color:#b99348"/><stop offset="1" style="stop-color:#9a773d"/></linearGradient><path d="M26.3 62.3c-5.7-3.6-6.4-3.4-7.5-2-1.1 1.3-1.7 5.5-1.7 5.7l-1.2-.3c0-.1.7-5 2-6.4 1.5-1.8 3.1-1.7 8.8 1.9l-.4 1.1z" style="fill:url(#SVGID_60_)"/><linearGradient id="SVGID_61_" x1="97.968" x2="105.642" y1="-44.091" y2="-51.765" gradientTransform="rotate(-45.001 179.997 90.953)" gradientUnits="userSpaceOnUse"><stop offset="0" style="stop-color:#e1d4a5"/><stop offset=".264" style="stop-color:#c8b481"/><stop offset=".581" style="stop-color:#af935c"/><stop offset=".838" style="stop-color:#a07e45"/><stop offset="1" style="stop-color:#9a773d"/></linearGradient><path d="M29.8 53.5c-.8-.2-2.3-.6-3.4-.9-1.4-.4-3.1-.8-3.6-2.4v-.1c-.6-2 .8-5.5 2.1-7.4l.9.7c-1.3 2.1-2.3 4.7-1.9 6.2.2 1.3 1.7 1.7 3 2.1 1.1.3 2.5.7 3.4.9l-.5.9z" style="fill:url(#SVGID_61_)"/><linearGradient id="SVGID_62_" x1="147.651" x2="155.311" y1="-28.444" y2="-28.444" gradientTransform="rotate(-67.5 159.897 120.118)" gradientUnits="userSpaceOnUse"><stop offset="0" style="stop-color:#e1d4a5"/><stop offset=".18" style="stop-color:#dfd0a0"/><stop offset=".408" style="stop-color:#d8c590"/><stop offset=".662" style="stop-color:#cdb376"/><stop offset=".932" style="stop-color:#bd9a52"/><stop offset="1" style="stop-color:#b99348"/></linearGradient><path d="M24.1 74c-.9.2-2.1.4-3.5.6-1.4.1-3.3.2-4.5-1v-.1c-1.3-1.6-.6-5.8-.2-7.9l1.2.3c-.2 1.3-1.1 5.1 0 6.6.7 1 2.4.9 3.8.7 1.1-.1 2.5-.4 3.5-.5l-.3 1.3z" style="fill:url(#SVGID_62_)"/><path d="M130.9 78c0 29.4-23.8 53.2-53.2 53.2-29.4 0-53.2-23.8-53.2-53.2 0-29.4 23.8-53.2 53.2-53.2 29.4-.1 53.2 23.7 53.2 53.2z" class="st64"/><radialGradient id="SVGID_63_" cx="77.697" cy="77.866" r="56.19" fx="55.735" fy="72.916" gradientUnits="userSpaceOnUse"><stop offset=".087" style="stop-color:#62beeb"/><stop offset=".543" style="stop-color:#227ab5"/><stop offset=".817" style="stop-color:#005698"/></radialGradient><path d="M130.9 78c0 29.4-23.8 53.2-53.2 53.2-29.4 0-53.2-23.8-53.2-53.2 0-29.4 23.8-53.2 53.2-53.2 29.4 0 53.2 23.8 53.2 53.2z" style="fill:url(#SVGID_63_)"/><radialGradient id="SVGID_64_" cx="76.706" cy="77.958" r="58.805" fx="60.921" fy="31.007" gradientUnits="userSpaceOnUse"><stop offset=".324" style="stop-color:#12b1e7"/><stop offset=".478" style="stop-color:#1485b7"/><stop offset=".671" style="stop-color:#165381"/><stop offset=".815" style="stop-color:#17345f"/><stop offset=".893" style="stop-color:#182852"/></radialGradient><circle cx="77.7" cy="78" r="53.2" style="opacity:.3;fill:url(#SVGID_64_)"/><radialGradient id="SVGID_65_" cx="58.17" cy="58.43" r="82.877" gradientUnits="userSpaceOnUse"><stop offset="0" style="stop-color:#ccd4e7"/><stop offset=".074" style="stop-color:#c4cee3"/><stop offset=".485" style="stop-color:#9aadd1"/><stop offset=".808" style="stop-color:#8099c5"/><stop offset="1" style="stop-color:#7692c1"/></radialGradient><path d="M52.1 76.1c1.2.2 1.9-.4 2.8-.8l1.6-.8c.4-.2 1-.1 1.2.3.5.2 1-.1 1.2-.4.3-.4.7-.6 1-.9.3 0 .8 0 1.1-.1 1.4.3 2.4.9 3.2 1.8 1.6.6 2.8 1.6 4.3 2.4 1.4.4 2.8.9 3.6 1.9.3.9 1.1 1.2 2.2 1.2.9 0 1.7 0 2.5.1.7.3 1.2.8 2 1.1.5 0 1.1.1 1.8.2.9.6 1.8 1.2 2.5 2.2.1.1.1.7 0 .9-1 1.4-1.5 3.3-2 5.3-.2.9-.5 1.8-1 2.6-.4.6-1 .9-1.5 1.2-.8.6-1.8 1-2.4 1.7-.8 2-1.4 4-1.9 6.1-.1.5-.7.8-1.4.7-1.4.2-2.2 1.1-2.4 2.3-.2.7-.7 1.1-1.4 1.4-.5.2-.8.6-.8 1.2s-.1 1.1-.5 1.4c-.2.2-.3.4-.2.9.4.7.9 1.6 1.1 2.7-.3.8.4 1.3.8 1.8.3.3.5.8.3 1.3-.3.2-.5.2-.9.3-.8.1-1.6.1-2.2-.1-.7-.2-1.1-.9-1.4-1.6-.4-1-1-2-1.3-3.2 0-1.3-.7-1.9-1.1-2.8-.5-1.4-.7-3-.7-4.7-.2-.9-.6-1.6-1.1-2.2-.3-.4-.6-.8-.8-1.3.2-1.4-.2-2.5-.7-3.5l-.3-2.7c-.5-.8-1.4-1.2-2.1-1.7-.6-.4-1.3-.7-2-1-.9-.7-1.3-1.9-1.7-3.1-.3-.8-.8-1.4-1.2-2.1-.1-1 .1-1.7.2-2.6 0-.5 0-1 .1-1.4.4-.5.8-1 .9-1.6.2-.9-.1-1.7-.6-2.1-.2-.2-.5-.2-.8-.3-1.4-.1-2.4-.7-3.4-1.3-.3-.2-.7-.3-.9-.6-1-1.2-2.4-2.1-4.1-2.5-1.4-.9-3.2-1.2-4.6-1.9-1.1-.5-1.5-1.6-1.9-2.9-.2-.7-.6-1.3-1.3-1.5-.9-.6-1.5-1.7-1.6-3.2-.2-.8-.8-1.3-1-2-.1-.3-.1-.7 0-1 .5-1.4.3-3.2-.3-4.4 0-.4-.1-.8 0-1.1.2-1.4.4-2.5 1.1-3.4.2-.3.3-1 .2-1.4-.3-1.1.2-2.2.9-2.7.4-.3.6-.8.5-1.3.3-.7.6-1.4 1.1-1.8.1-.6.5-.9.7-1.4 1-2 2.7-3.7 4.3-5.1 1.2-1.1 2.4-2.1 3.8-3.1l2.5-1.9 3.7-2.2c1.3-.7 2.6-1.4 4-1.9.2-.1.4-.1.7-.1.3.7.8 1.2 1.1 2 .3 0 .7-.1 1.1 0 .4.1.6.4.9.5.2.1.4-.1.5.1.1.4.5.7.8.9.6.5 1.1 1.1 1.8 1.5.7 0 1.4.2 1.6.7.1.2.1.4.1.4.1 1.6-.3 2.7-.8 3.6-.1.2-.3.2-.5.2-.6-.1-1-.6-1.2-1.1-.2-.4-.3-1-.7-1.3-.2-.1-.5-.2-.7-.2-.4-.1-.7.3-.8.6-.1.2-.1.4-.2.6-.3.3-.9.3-1.3.6-.3.2-.4.6-.4 1-.3 1.2-1.5 1.9-2.9 1.6-.8-.2-1.9.1-2.4.6-.1.4.1.8 0 1.1 0 .1-.3.6-.4.7-.1.2.2.3.4.4.3.1.7.3 1 .4l.8 1c.1.1.4.2.5.2.9-.5 1.9-.7 2.6-1.4.7-.6 1-1.6 1.3-2.5.1-.1.2-.3.3-.3.8.1 1.7.1 2.4-.1 1 .2 1.6.8 1.8 1.6.2.6 0 1.5.2 2 .3.5.8.8 1.2 1.3.3.1.7.1.9.4.5.8.5 2.3-.4 2.8-.3.2-.7.3-1.3.4-.5-.1-1-.4-1.7-.6-.9.2-1.8.6-2.4 1.3-.1.1-.2.4 0 .4.4.1.8-.1 1.1-.3.3-.1.7-.1 1 0 .1 0 .3.2.3.4 0 .6-.3 1-.6 1.4-.7 1-1.8 1.6-3 2.1-1 1-1.4 2.6-2 3.9-1 1.3-2.4 2-3.9 2.7-.4.2-.7.8-.5 1.3.3.5.6 1 .7 1.7 0 .3.1.7 0 .9-.1.2-.2.3-.4.3-.8 0-1.2-.6-1.6-1.1-.4-.5-.8-1.1-1.5-1.4-1.3-.3-2.3.2-3.2.7-.6.1-1.3.2-1.7.6-.2.2-.2.4-.2.6-.1.9-.2 1.7-.6 2.3-.2.3-.1.7-.2 1.1v1.1c.1.3.2.6.4.8.2.2.5.3.8.1.5-.4.9-1.1 1.7-1.3.3.1.6.1.8.1.5.1.7.5.8.8.3.6 0 1.2-.1 1.7-.1.2-.1.4 0 .4.3.2.6 0 .8 0 .6-.1.7.4 1 .6" style="opacity:.8;fill:url(#SVGID_65_)"/><linearGradient id="SVGID_66_" x1="32.681" x2="65.419" y1="51.58" y2="51.58" gradientUnits="userSpaceOnUse"><stop offset="0" style="stop-color:#727598"/><stop offset=".543" style="stop-color:#747799"/><stop offset=".739" style="stop-color:#7b7e9e"/><stop offset=".878" style="stop-color:#8689a7"/><stop offset=".99" style="stop-color:#979ab4"/><stop offset="1" style="stop-color:#999cb5"/></linearGradient><path d="M43.5 73.7c-1.4-.9-3.2-1.2-4.6-1.9-1.1-.5-1.5-1.6-1.9-2.9-.2-.7-.6-1.3-1.3-1.5-.9-.6-1.5-1.7-1.6-3.2-.2-.8-.8-1.3-1-2-.1-.3-.1-.7 0-1 .5-1.4.3-3.2-.3-4.4 0-.4-.1-.8 0-1.1.2-1.4.4-2.5 1.1-3.4.2-.3.3-1 .2-1.4-.3-1.1.2-2.2.9-2.7.4-.3.6-.8.5-1.3.3-.7.6-1.4 1.1-1.8.1-.6.5-.9.7-1.4 1-2 2.7-3.7 4.3-5.1 1.2-1.1 2.4-2.1 3.8-3.1l2.5-1.9 3.7-2.2c1.3-.7 2.6-1.4 4-1.9.2-.1.4-.1.7-.1.3.7.8 1.2 1.1 2 .3 0 .7-.1 1.1 0 .4.1.6.4.9.5.2.1.4-.1.5.1.1.4.5.7.8.9.6.5 1.1 1.1 1.8 1.5.7 0 1.4.2 1.6.7.1.2.1.4.1.4.1 1.5-.2 2.6-.8 3.5-.1.2-.2.2-.5.2-.6-.1-1-.6-1.2-1.1-.2-.4-.3-1-.7-1.3-.2-.1-.5-.2-.7-.2-.4-.1-.7.3-.8.6-.1.2-.1.4-.2.6-.3.3-.9.3-1.3.6-.3.2-.4.6-.4 1-.3 1.2-1.5 1.9-2.9 1.6-.8-.2-1.9.1-2.4.6-.1.4.1.8 0 1.1 0 .1-.3.6-.4.7-.1.2.2.3.4.4.3.1.7.3 1 .4l.8 1c.1.1.4.2.5.2.9-.5 1.9-.7 2.6-1.4.7-.6 1-1.6 1.3-2.5.1-.1.2-.3.3-.3.8.1 1.7.1 2.4-.1 1 .2 1.6.8 1.8 1.6.2.6 0 1.5.2 2 .3.5.8.8 1.2 1.3.3.1.7.1.9.4.5.8.5 2.3-.4 2.8-.3.2-.7.3-1.3.4-.5-.1-1-.4-1.7-.6-.9.2-1.8.6-2.4 1.3-.1.1-.2.4 0 .4.4.1.8-.1 1.1-.3.3-.1.7-.1 1 0 .1 0 .3.2.3.4 0 .6-.3 1-.6 1.4-.7 1-1.8 1.6-3 2.1-1 1-1.4 2.6-2 3.9-1 1.3-2.4 2-3.9 2.7-.4.2-.7.8-.5 1.3.3.5.6 1 .7 1.7 0 .3.1.7 0 .9-.1.2-.2.3-.4.3-.8 0-1.2-.6-1.6-1.1-.4-.5-.8-1.1-1.5-1.4-1.3-.3-2.3.2-3.2.7-.6.1-1.3.2-1.7.6-.2.2-.2.4-.2.6-.1.9-.2 1.7-.6 2.3-.2.3-.1.7-.2 1.1V69c.1.3.2.6.4.8.2.2.5.3.8.1.5-.4.9-1.1 1.7-1.3.3.1.6.1.8.1.5.1.7.5.8.8.3.6 0 1.2-.1 1.7-.1.2-.1.4 0 .4.3.2.6 0 .8 0 .6-.1.7.4 1 .6" style="opacity:.45;fill:url(#SVGID_66_)"/><radialGradient id="SVGID_67_" cx="58.706" cy="58.506" r="82.878" gradientUnits="userSpaceOnUse"><stop offset="0" style="stop-color:#ccd4e7"/><stop offset=".074" style="stop-color:#c4cee3"/><stop offset=".485" style="stop-color:#9aadd1"/><stop offset=".808" style="stop-color:#8099c5"/><stop offset="1" style="stop-color:#7692c1"/></radialGradient><path d="M84.6 124.9c1.3-.2 2.3.2 3.3.3.7-.2 1.2-.5 1.9-.6 2.2 0 3.9.7 5.5 1.3.9.3 1.6.8 2.5 1.2-.8.4-1.6.7-2.4 1.1-3.9 1.6-8.5 2.6-13.6 2.9-8.8.6-16.6-.9-22.9-3.4-.5-.2-1.1-.4-1.6-.7.7-1 1.6-1.6 3.1-1.8l2.3-.4c1.5-.1 2.7.4 3.9.7.7 0 1.4 0 1.9.2 1.5-.2 2.3-1.1 3.1-2 .3-.3.5-.7.6-1.2.2-1.1 1-1.8 1.8-2.2.1 0 .3 0 .2.3-.1.4-.5.8-.6 1.4-.1.3 0 .6.2.8.4.5.5 1.4.6 2 .7.8 1.5 1.3 2.7 1.4.8 0 1.4.3 2.1.4.2 0 .4.1.6-.1l4.8-1.6z" style="fill:url(#SVGID_67_)"/><linearGradient id="SVGID_68_" x1="77.563" x2="77.563" y1="120.139" y2="130.561" gradientUnits="userSpaceOnUse"><stop offset="0" style="stop-color:#b8bacc"/><stop offset=".068" style="stop-color:#b4b6c9"/><stop offset=".651" style="stop-color:#9b9db6"/><stop offset="1" style="stop-color:#9193af"/></linearGradient><path d="M84.6 124.9c1.3-.2 2.3.2 3.3.3.7-.2 1.2-.5 1.9-.6 2.2 0 3.9.7 5.5 1.3.9.3 1.6.8 2.5 1.2-.8.4-1.6.7-2.4 1.1-3.9 1.6-8.5 2.6-13.6 2.9-8.8.6-16.6-.9-22.9-3.4-.5-.2-1.1-.4-1.6-.7.7-1 1.6-1.6 3.1-1.8l2.3-.4c1.5-.1 2.7.4 3.9.7.7 0 1.4 0 1.9.2 1.5-.2 2.3-1.1 3.1-2 .3-.3.5-.7.6-1.2.2-1.1 1-1.8 1.8-2.2.1 0 .3 0 .2.3-.1.4-.5.8-.6 1.4-.1.3 0 .6.2.8.4.5.5 1.4.6 2 .7.8 1.5 1.3 2.7 1.4.8 0 1.4.3 2.1.4.2 0 .4.1.6-.1l4.8-1.6z" style="opacity:.7;fill:url(#SVGID_68_)"/><radialGradient id="SVGID_69_" cx="58.171" cy="58.431" r="82.874" gradientUnits="userSpaceOnUse"><stop offset="0" style="stop-color:#ccd4e7"/><stop offset=".074" style="stop-color:#c4cee3"/><stop offset=".485" style="stop-color:#9aadd1"/><stop offset=".808" style="stop-color:#8099c5"/><stop offset="1" style="stop-color:#7692c1"/></radialGradient><path d="M73.3 33.6c.1-.3.1-.6.3-.8.2-.3.4-.8.2-1.3 0-.1-.2-.4-.4-.5-.4-.3-1-.5-1.2-1 0-.5.3-.8.5-1.3-.7-.5-1.5-.9-1.8-1.8 0-.1-.2-.2-.3-.2-.2-.2 0-.4.1-.6-.2.1-.4.1-.6.1l-.1.1c-.8.1-1.7.2-2.4.3-.4.2-.7.2-1.1.2-.1 0-.3 0-.4.1-.6.6-.8 1.5-1.1 2.5 0 .1-.1.3.1.2.2.1.2.3.4.4h.7c.1 0 .3 0 .3.2-.1.3-.2.6-.3.7-.4.4-.5 1.2-.3 1.9.1.4.2.8.1 1.2-.1.3-.1.6 0 .9.2.4.5.7.7 1 .3.5.6 1.1 1.2 1.4l2.9.9c.1 0 .3-.1.4-.2.2-.4.5-.9.8-1.3 0-.1.8-1.5 1.3-3.1z" style="opacity:.9;fill:url(#SVGID_69_)"/><linearGradient id="SVGID_70_" x1="70.574" x2="68.637" y1="38.514" y2="25.234" gradientUnits="userSpaceOnUse"><stop offset=".283" style="stop-color:#999cb5"/><stop offset=".584" style="stop-color:#8386a5"/><stop offset=".852" style="stop-color:#73769a"/></linearGradient><path d="M73.3 33.6c.1-.3.1-.6.3-.8.2-.3.4-.8.2-1.3 0-.1-.2-.4-.4-.5-.4-.3-1-.5-1.2-1 0-.5.3-.8.5-1.3-.7-.5-1.5-.9-1.8-1.8 0-.1-.2-.2-.3-.2-.2-.2 0-.4.1-.6-.2.1-.4.1-.6.1l-.1.1c-.8.1-1.7.2-2.4.3-.4.2-.7.2-1.1.2-.1 0-.3 0-.4.1-.6.6-.8 1.5-1.1 2.5 0 .1-.1.3.1.2.2.1.2.3.4.4h.7c.1 0 .3 0 .3.2-.1.3-.2.6-.3.7-.4.4-.5 1.2-.3 1.9.1.4.2.8.1 1.2-.1.3-.1.6 0 .9.2.4.5.7.7 1 .3.5.6 1.1 1.2 1.4l2.9.9c.1 0 .3-.1.4-.2.2-.4.5-.9.8-1.3 0-.1.8-1.5 1.3-3.1z" style="opacity:.9;fill:url(#SVGID_70_)"/><radialGradient id="SVGID_71_" cx="58.17" cy="58.43" r="82.877" gradientUnits="userSpaceOnUse"><stop offset="0" style="stop-color:#ccd4e7"/><stop offset=".074" style="stop-color:#c4cee3"/><stop offset=".485" style="stop-color:#9aadd1"/><stop offset=".808" style="stop-color:#8099c5"/><stop offset="1" style="stop-color:#7692c1"/></radialGradient><path d="M53.2 66.4c-.5-.1-1.1-.3-1.6-.1 0 0-.1 0-.2.1-.5.3-1 .7-1.2 1.3.2.5.7.7 1.2.7l3.8-.6c.9.2 1.7.5 2.6.7.2 0 .4 0 .6-.1.2 0 .4-.2.3-.4-.1-.5-.3-.8-.7-1.1-.8-.2-1.7-.3-2.5-.6l-2.3.1z" style="fill:url(#SVGID_71_)"/><path d="M60.7 67.8v.8l-1.8.4 1.4.4h2.2l1.6.6-1-1.6-.8-1z" style="fill:#bbc7df"/><path d="M60.7 67.8v.8l-1.8.4 1.4.4h2.2l1.6.6-1-1.6-.8-1z" style="fill:#9ed1f1"/><radialGradient id="SVGID_72_" cx="58.172" cy="58.433" r="82.874" gradientUnits="userSpaceOnUse"><stop offset="0" style="stop-color:#ccd4e7"/><stop offset=".074" style="stop-color:#c4cee3"/><stop offset=".485" style="stop-color:#9aadd1"/><stop offset=".808" style="stop-color:#8099c5"/><stop offset="1" style="stop-color:#7692c1"/></radialGradient><path d="M74.9 35.5c.1 0 .3-.1.3-.1.6.2 1.2.4 1.6.7.2.1.4.4.2.6-.2.2-.5.3-.9.5h-1c-.5-.2-.9-.4-1.1-.7 0 0 .4-.7.9-1z" style="opacity:.9;fill:url(#SVGID_72_)"/><radialGradient id="SVGID_73_" cx="58.122" cy="59.905" r="82.243" gradientUnits="userSpaceOnUse"><stop offset="0" style="stop-color:#ccd4e7"/><stop offset=".074" style="stop-color:#c4cee3"/><stop offset=".485" style="stop-color:#9aadd1"/><stop offset=".808" style="stop-color:#8099c5"/><stop offset="1" style="stop-color:#7692c1"/></radialGradient><path d="M130.8 73.1c-.2-2.5-.7-5-1.1-7.4-.9-3.5-2-6.8-3.3-9.9-1.1-2.4-2.7-5.1-2.7-5.1l-.7.2s.4 1.2-.7.9c-1.1-.2-3.8-1.5-3.9-.9-.1.7.1 1.5.2 1.9.1.5 1.2 1.6.1 1.4-1-.2-2.4-.5-2.4-.5s-.9-1.3-2.5-1.2c-1.6.1-3-.2-3.2-1-.2-.9-1.2-2.2-5.2-2.4-4-.2-5.8 2.3-5.8 2.3s-1.2 1.8-2.4 1.9c-1.2.2-2.4.1-2.9.2-.5.8-.6 2-.7 3.1-.5 1-1 1.8-1 3.3-.2 1.3-.4 2.6-.6 3.8-.2 1-.1 2.2-.1 3.3 0 1.4.8 2.2 1.8 2.7l.7.7c.4.5.6 1.2 1 1.8.7 1 1.5 2.1 3 2.2 1.1.1 2.1-.1 3.2-.4 1.1 0 2-.3 2.9-.7 1.2-.3 2-1 3.5-1 .2 0 .4.1.6.2 1 .5 1.3 1.7 1.6 2.8.1 1.1.5 1.9 1.2 2.6.5 1.3.7 2.8 1.1 4.3.2.9.6 2.2 0 2.9-.3.3-.5.8-.4 1.4l1.5 3.5c0 1-.3 1.8-.5 2.5.1 1.7.3 3.2.6 4.6-.1 1.1-.5 1.8-.7 2.8-.1.4 0 .6.3.8 1.9-.1 3.7-.4 5.7-.5.4 0 .8-.1 1.1-.4.5-1 1-2 2-2.6.2-.8.5-1.5 1.1-2.1.5-.5 1.1-.8 1.6-1.4.3-1.1.4-2.5.9-3.5.5-1.1 4.8-5.1 4.8-5.1.6-3.5.6-7.8.3-12z" style="fill:url(#SVGID_73_)"/><linearGradient id="SVGID_74_" x1="92.614" x2="134.607" y1="84.265" y2="62.809" gradientUnits="userSpaceOnUse"><stop offset=".283" style="stop-color:#999cb5"/><stop offset=".662" style="stop-color:#8386a5"/><stop offset="1" style="stop-color:#73769a"/></linearGradient><path d="M130.8 73.1c-.2-2.5-.7-5-1.1-7.4-.9-3.5-2-6.8-3.3-9.9-1.1-2.4-2.7-5.1-2.7-5.1l-.7.2s.4 1.2-.7.9c-1.1-.2-3.8-1.5-3.9-.9-.1.7.1 1.5.2 1.9.1.5 1.2 1.6.1 1.4-1-.2-2.4-.5-2.4-.5s-.9-1.3-2.5-1.2c-1.6.1-3-.2-3.2-1-.2-.9-1.2-2.2-5.2-2.4-4-.2-5.8 2.3-5.8 2.3s-1.2 1.8-2.4 1.9c-1.2.2-2.4.1-2.9.2-.5.8-.6 2-.7 3.1-.5 1-1 1.8-1 3.3-.2 1.3-.4 2.6-.6 3.8-.2 1-.1 2.2-.1 3.3 0 1.4.8 2.2 1.8 2.7l.7.7c.4.5.6 1.2 1 1.8.7 1 1.5 2.1 3 2.2 1.1.1 2.1-.1 3.2-.4 1.1 0 2-.3 2.9-.7 1.2-.3 2-1 3.5-1 .2 0 .4.1.6.2 1 .5 1.3 1.7 1.6 2.8.1 1.1.5 1.9 1.2 2.6.5 1.3.7 2.8 1.1 4.3.2.9.6 2.2 0 2.9-.3.3-.5.8-.4 1.4l1.5 3.5c0 1-.3 1.8-.5 2.5.1 1.7.3 3.2.6 4.6-.1 1.1-.5 1.8-.7 2.8-.1.4 0 .6.3.8 1.9-.1 3.7-.4 5.7-.5.4 0 .8-.1 1.1-.4.5-1 1-2 2-2.6.2-.8.5-1.5 1.1-2.1.5-.5 1.1-.8 1.6-1.4.3-1.1.4-2.5.9-3.5.5-1.1 4.8-5.1 4.8-5.1.6-3.5.6-7.8.3-12z" style="opacity:.25;fill:url(#SVGID_74_)"/><radialGradient id="SVGID_75_" cx="58.17" cy="58.431" r="82.877" gradientUnits="userSpaceOnUse"><stop offset="0" style="stop-color:#ccd4e7"/><stop offset=".074" style="stop-color:#c4cee3"/><stop offset=".485" style="stop-color:#9aadd1"/><stop offset=".808" style="stop-color:#8099c5"/><stop offset="1" style="stop-color:#7692c1"/></radialGradient><path d="m88.1 29.8 1.9.7.9.4 1.4.6.5-.4-1-.8-2.2-1.8-1.5-.2-1.4-1-1.1-.6.8-.1 1.9 1 2.9 1 1.5.1.9.7 1 .1-.4.6 1.7 1.5-.9.4s-1.3-.4-1.2 0c.1.4-2.2.4-2.2.4l-.7-.5-.2-.5-1.1-.3-.7.3 2 2-.8 1 .2 1.2-.3 1.1-.6.9-.7.9s-.8-.1-1.5.6.4.7 2.2 1.2c1.8.5 3.8 3.7 3.8 3.7s-1.5.4-2.1.4c-.4 0-2 .1-3 .3l-1.5 1.1c-.3 0 .9 1.4 1.3 1.9.3.4.4.9.4 1.5.1.8.1 1.3.1 1.4.5.7 1.5.2 1.5.9.1.5.6.9.8 1.2.1.1 1.3-.1 1.4-.1l2 .7c.1-.4.8-1.3 1.8-1.4 1-.1 1.1-.6 1.1-.6l.2-1.6-.1-1.7-.5-1.7.4-1.4.9-1s-1.1-1.4.1-1.9c1.3-.5 2.6-.5 2.6-1s1.4.6 1.8.8c.4.2 2.1 1.2 3.4 1.2 1.3 0 3.3 1.3 3.3 1.3l1.4 1.5-.7-1.7.4-.2s-.6-.7-1.5-1.1c-.9-.4-3.2-1.2-3.2-1.2l-2.4-1.4-1.1-1.1s3.2 1.1 3.6 1.1c.4 0 4 2.2 4 2.2l1.8 1.3 1.3 1.3s1.4 1.2 1.7 1.3c.3.1 1.6.5 1.6.2s-.5-1.4-.5-1.4l-1.3-1.2-.5-1.4.5.3 1.1 1.3 1.4 1.1 1 .3.7.8.7-.9.9.1 1 1.9.4-.4c-2-2.7-5.2-6.3-7.7-8.5-.3-.3-3.7-3-3.8-3.1-.5-.4-1-.9-1.6-1.3-6.6-4.5-14.2-7.9-24.1-9.1-.2 0-.3.1-.4.2-.1.2.1.3.1.3.1 1-.1 1.8-.4 2.5 0 .1 0 .3.1.4.2.4.4.7.7 1 .7.4 1.5.8 1.9 1 .8.6 1.9-.6 1.9-.6z" style="opacity:.9;fill:url(#SVGID_75_)"/><path d="m109.9 45.8-1.6.2.2.8 2.1.6.1-.7zM103.1 45.3l1.4 1.7 1 .3v-.9l-1.4-1.5h-.7zM101.7 43l.9 1.2h.6l-.9-1.3z" class="st80"/><path d="m86.5 38.4 1.6-1.1 1.2-.4-.4-.6-.3-.4-1-.1-1.2-.6-.9-.4-.5-.1-.2-.8h-.9l-.8-.4-.4.5.9.6.3.7.3.3.7-.1.9.1.3.6-.7-.1.7.5v.5l.7.3z" class="st81"/><path d="m83.9 35.8.7.5.6.5.3.5-1.1.6h-.9v-.8l-.5-.2-.2-.4.3-.1V36z" class="st81"/><linearGradient id="SVGID_76_" x1="63.346" x2="63.346" y1="66.909" y2="125.543" gradientUnits="userSpaceOnUse"><stop offset=".283" style="stop-color:#62beeb"/><stop offset=".445" style="stop-color:#65a0cb"/><stop offset=".677" style="stop-color:#687aa3"/><stop offset=".796" style="stop-color:#696c93"/></linearGradient><path d="M52.1 76.1c1.2.2 1.9-.4 2.8-.8l1.6-.8c.4-.2 1-.1 1.2.3.5.2 1-.1 1.2-.4.3-.4.7-.6 1-.9.3 0 .8 0 1.1-.1 1.4.3 2.4.9 3.2 1.8 1.6.6 2.8 1.6 4.3 2.4 1.4.4 2.8.9 3.6 1.9.3.9 1.1 1.2 2.2 1.2.9 0 1.7 0 2.5.1.7.3 1.2.8 2 1.1.5 0 1.1.1 1.8.2.9.6 1.8 1.2 2.5 2.2.1.1.1.7 0 .9-1 1.4-1.5 3.3-2 5.3-.2.9-.5 1.8-1 2.6-.4.6-1 .9-1.5 1.2-.8.6-1.8 1-2.4 1.7-.8 2-1.4 4-1.9 6.1-.1.5-.7.8-1.4.7-1.4.2-2.2 1.1-2.4 2.3-.2.7-.7 1.1-1.4 1.4-.5.2-.8.6-.8 1.2s-.1 1.1-.5 1.4c-.2.2-.3.4-.2.9.4.7.9 1.6 1.1 2.7-.3.8.4 1.3.8 1.8.3.3.5.8.3 1.3-.3.2-.5.2-.9.3-.8.1-1.6.1-2.2-.1-.7-.2-1.1-.9-1.4-1.6-.4-1-1-2-1.3-3.2 0-1.3-.7-1.9-1.1-2.8-.5-1.4-.7-3-.7-4.7-.2-.9-.6-1.6-1.1-2.2-.3-.4-.6-.8-.8-1.3.2-1.4-.2-2.5-.7-3.5l-.3-2.7c-.5-.8-1.4-1.2-2.1-1.7-.6-.4-1.3-.7-2-1-.9-.7-1.3-1.9-1.7-3.1-.3-.8-.8-1.4-1.2-2.1-.1-1 .1-1.7.2-2.6 0-.5 0-1 .1-1.4.4-.5.8-1 .9-1.6.2-.9-.1-1.7-.6-2.1-.2-.2-.5-.2-.8-.3-1.4-.1-2.4-.7-3.4-1.3-.3-.2-.7-.3-.9-.6-1-1.2-2.4-2.1-4.1-2.5" style="opacity:.3;fill:url(#SVGID_76_)"/><linearGradient id="SVGID_77_" x1="54.419" x2="54.419" y1="66.356" y2="124.989" gradientUnits="userSpaceOnUse"><stop offset=".283" style="stop-color:#9ed1f1"/><stop offset=".356" style="stop-color:#9cc8e7"/><stop offset=".683" style="stop-color:#94a2bf"/><stop offset=".852" style="stop-color:#9193af"/></linearGradient><path d="M53.2 66.4c-.5-.1-1.1-.3-1.6-.1 0 0-.1 0-.2.1-.5.3-1 .7-1.2 1.3.2.5.7.7 1.2.7l3.8-.6c.9.2 1.7.5 2.6.7.2 0 .4 0 .6-.1.2 0 .4-.2.3-.4-.1-.5-.3-.8-.7-1.1-.8-.2-1.7-.3-2.5-.6l-2.3.1z" style="fill:url(#SVGID_77_)"/><linearGradient id="SVGID_78_" x1="32.622" x2="83.211" y1="79.543" y2="79.543" gradientUnits="userSpaceOnUse"><stop offset="0" style="stop-color:#8ba2cc"/><stop offset=".774" style="stop-color:#98acd1"/></linearGradient><path d="M68 116.2c-.5 0-1-.1-1.4-.2-.8-.2-1.1-.9-1.4-1.6-.1-.3-.3-.6-.4-.9-.3-.7-.7-1.4-.9-2.3 0-.8-.3-1.4-.6-1.9-.2-.3-.3-.6-.4-.9-.5-1.4-.7-2.9-.7-4.7-.2-.9-.6-1.6-1.1-2.2-.3-.4-.6-.8-.8-1.3.2-1.2 0-2.3-.7-3.5l-.3-2.7c-.3-.6-.9-1-1.5-1.3-.2-.1-.4-.2-.6-.4-.4-.3-1-.5-1.5-.7-.2-.1-.3-.1-.5-.2-.9-.6-1.3-1.7-1.7-2.8l-.1-.3c-.2-.5-.5-1-.7-1.4-.1-.2-.3-.5-.4-.7-.1-.6 0-1.2.1-1.7 0-.3.1-.6.1-.9 0-.4 0-1 .1-1.4v-.1l.1-.1c.4-.5.7-.9.8-1.5.2-.8-.1-1.6-.6-2-.2-.1-.4-.2-.7-.2-1.4-.1-2.4-.7-3.4-1.3h-.1c-.1-.1-.2-.1-.3-.2-.2-.1-.4-.2-.6-.4-1-1.2-2.4-2.1-4.1-2.5-.8-.5-1.7-.8-2.7-1.1-.7-.2-1.3-.5-2-.8-1.1-.5-1.6-1.7-2-2.9-.2-.8-.6-1.3-1.3-1.4-1-.7-1.6-1.8-1.7-3.2-.1-.4-.4-.8-.6-1.1-.2-.3-.3-.5-.5-.8-.2-.4-.1-.8 0-1 .4-1.3.3-3.1-.3-4.4 0-.4-.1-.8 0-1.2.2-1.5.5-2.6 1.1-3.4.2-.3.3-.9.1-1.3-.4-1.2.2-2.3.9-2.8.4-.3.6-.8.5-1.2.1-.1.1-.2.2-.3.3-.6.5-1.1 1-1.5.1-.4.3-.7.4-1 .1-.1.2-.3.2-.4.1-.2.3-.4.4-.6.1-.1.2-.2.2-.3l.1.1c-.1.1-.1.2-.2.3-.1.2-.3.4-.4.6-.1.1-.2.3-.2.4-.2.3-.4.6-.4.9-.4.3-.7.8-1 1.4 0 .1-.1.2-.1.3.1.5-.1 1-.5 1.3-.7.5-1.2 1.5-.9 2.6.1.4.1 1.1-.2 1.4-.6.8-.9 1.9-1.1 3.3-.1.4 0 .8 0 1.1.6 1.3.7 3.1.3 4.4-.1.2-.1.6 0 .9.1.3.3.6.5.8.2.3.4.7.6 1.2.1 1.4.7 2.5 1.6 3.1.6.2 1.1.7 1.3 1.5.4 1.2.8 2.3 1.9 2.8.6.3 1.3.5 1.9.7.9.3 1.9.6 2.7 1.1 1.7.4 3.1 1.3 4.2 2.5.1.2.4.3.6.4.1 0 .2.1.3.2h.1c.9.6 1.9 1.2 3.3 1.3.4 0 .6.1.8.3.6.5.8 1.3.6 2.2-.1.6-.5 1.1-.9 1.6 0 .4-.1 1-.1 1.4 0 .3-.1.6-.1.9-.1.5-.1 1-.1 1.7.1.2.3.5.4.7.3.4.6.9.7 1.4l.1.3c.4 1 .8 2.1 1.6 2.7.2.1.3.1.5.2.5.2 1 .5 1.5.8.2.1.4.2.6.4.6.4 1.2.7 1.6 1.4l.3 2.7c.7 1.2.9 2.3.7 3.5.2.5.5.9.8 1.3.5.6 1 1.3 1.1 2.2 0 1.8.2 3.3.7 4.7.1.3.3.6.4.9.3.5.6 1.1.6 2 .2.8.5 1.6.9 2.3.1.3.3.6.4.9.3.7.6 1.4 1.3 1.6.6.2 1.5.2 2.2.1.4-.1.6-.1.8-.3.2-.4 0-1-.3-1.2l-.2-.2c-.4-.4-.9-.9-.6-1.6-.2-1.1-.7-2-1.1-2.7-.1-.5.1-.8.2-1 .3-.3.4-.7.4-1.4 0-.6.3-1.1.8-1.2.8-.3 1.2-.7 1.4-1.3.3-1.4 1.2-2.2 2.5-2.4.6 0 1.2-.2 1.3-.7.6-2.5 1.2-4.4 1.9-6.1.4-.5.9-.8 1.5-1.2l.9-.6c.1-.1.3-.2.4-.3.4-.3.8-.5 1.1-.9.4-.6.7-1.5 1-2.5.5-2 1-3.9 2-5.3.1-.1.1-.7 0-.8-.6-1-1.6-1.7-2.4-2.2l.1-.1c.9.6 1.8 1.3 2.5 2.3.1.2.1.8 0 .9-1 1.4-1.5 3.3-2 5.3-.3 1.1-.6 1.9-1 2.6-.3.4-.7.7-1.1 1-.1.1-.3.2-.4.3l-.9.6c-.6.3-1.1.7-1.5 1.1-.7 1.7-1.3 3.6-1.9 6.1-.1.6-.8.8-1.4.8-1.3.2-2.1 1-2.4 2.3-.2.7-.6 1.1-1.4 1.4-.5.1-.7.5-.7 1.1 0 .7-.2 1.2-.5 1.5-.2.2-.3.4-.2.8.5.7.9 1.6 1.1 2.7-.3.7.2 1.1.6 1.5l.2.2c.3.3.5.9.3 1.4-.3.2-.6.3-.9.3H68z" style="fill:url(#SVGID_78_)"/><path d="M80.6 82.1c-.6-.1-1.2-.2-1.8-.2-.5-.2-.8-.4-1.2-.6-.3-.2-.5-.3-.8-.5-.6-.1-1.3-.1-2-.1h-.5c-1.3 0-2-.4-2.3-1.2-.8-.9-2.2-1.4-3.5-1.8-.5-.3-.9-.5-1.3-.8-1-.6-1.9-1.2-3-1.6-.9-.9-2-1.5-3.2-1.8-.3.1-.6.1-.8.1h-.3c-.1.1-.3.2-.4.3-.2.2-.5.4-.6.6-.3.4-.7.7-1.3.4-.2-.3-.8-.5-1.2-.2l-1.6.8-.6.3c-.6.3-1.3.6-2.2.5v-.1c.9.1 1.5-.2 2.2-.5l.6-.3 1.6-.8c.4-.2 1-.1 1.3.3.5.2.9-.1 1.2-.4l.6-.6c.1-.1.3-.2.4-.3h.3c.3 0 .6 0 .8-.1 1.3.3 2.3.8 3.3 1.8 1.1.4 2 1 3 1.6.4.3.9.5 1.3.8 1.4.4 2.8.9 3.6 1.9.2.8.9 1.1 2.2 1.2h.5c.7 0 1.4 0 2 .1.3.1.6.3.8.5.3.2.7.5 1.2.6.5 0 1.1.1 1.8.2l-.1-.1z" style="fill:#bcddf4"/><path d="M52.1 66.2c.4 0 .8.1 1.1.2h2.4c.8.3 1.7.4 2.5.6.3.2.6.6.7 1.1 0 .2-.2.3-.3.4-.1 0-.3.1-.4.1H58c-.9-.2-1.6-.5-2.6-.7l-3.8.6h-.1c-.5 0-1-.2-1.1-.7.2-.6.7-1 1.2-1.3 0 0 .1-.1.2-.1-.1-.2.1-.2.3-.2m0-.1c-.2 0-.4 0-.5.1-.1 0-.2.1-.2.1-.6.3-1 .8-1.3 1.4.2.5.6.8 1.3.8h.1l3.8-.6c.6.1 1.1.3 1.6.4l.9.3h.1c.1 0 .2 0 .4-.1h.1c.2 0 .5-.2.4-.5-.1-.5-.3-.9-.7-1.2-.3-.1-.7-.2-1-.2-.5-.1-1-.2-1.4-.4h-2.3c-.1 0-.2 0-.3-.1-.5.1-.8 0-1 0zM64.2 70.1l-1.7-.7h-2.2l-1.4-.4v-.1l1.7-.4v-.8l1.7-.4.8 1 1.1 1.8zm-3.9-.8h2.2l1.4.5-.9-1.4-.8-1-1.5.4v.8l-1.5.4 1.1.3z" class="st86"/><path d="M49.6 72.5c-.1-.1-.2-.2-.3-.2-.2-.2-.4-.4-.7-.3h-.2c-.2 0-.4.1-.7 0-.1-.1-.1-.4-.1-.5.2-.5.4-1.1.1-1.6-.1-.3-.3-.7-.8-.7-.3 0-.5 0-.8-.1-.5.1-.9.5-1.2.9-.1.2-.3.3-.5.5-.3.2-.7.1-.9-.1-.2-.1-.2-.4-.3-.6 0-.1 0-.1-.1-.2V68.2c0-.3 0-.6.1-.8.3-.6.5-1.3.6-2.3V65c0-.2 0-.4.2-.6.3-.3.8-.4 1.2-.5.2 0 .3-.1.4-.1.9-.5 2-1 3.2-.7.6.3 1 .8 1.4 1.2l.2.2.2.2c.3.4.7.9 1.3.9.1 0 .3-.1.3-.3.1-.2.1-.4 0-.6v-.2c-.2-.6-.4-1-.6-1.4l-.1-.2c-.1-.2-.1-.5 0-.8.1-.3.3-.5.5-.6 1.5-.6 2.9-1.4 3.9-2.7.1-.3.2-.5.3-.8.4-1.2.9-2.3 1.7-3.2 1.1-.5 2.3-1.1 2.9-2.1.3-.4.6-.8.5-1.4 0-.2-.1-.3-.2-.3-.3-.1-.7-.1-1 0-.1 0-.2.1-.2.1-.3.1-.6.3-.9.2-.1 0-.2-.1-.2-.2s0-.3.1-.4c.8-.8 1.8-1.1 2.4-1.3.3.1.6.2.8.3.3.1.6.2.8.3.4-.1.8-.2 1.2-.4.3-.1.5-.5.6-.9.2-.6 0-1.3-.3-1.8-.1-.2-.4-.3-.6-.3-.1 0-.2 0-.2-.1l.4-.3c-.4-.4-.7-.7-1-1.1-.1-.3-.1-.7-.1-1.1 0-.3 0-.7-.1-1-.2-.8-.8-1.4-1.7-1.6-.7.1-1.6.2-2.4.1-.1 0-.2.1-.3.2 0 .1-.1.2-.1.3-.3.8-.6 1.7-1.2 2.2-.5.5-1.1.7-1.7 1-.3.1-.6.3-.9.4-.2.1-.4 0-.6-.2l-.8-1c-.3-.1-.5-.2-.7-.3-.1-.1-.2-.1-.3-.2-.1 0-.5-.2-.4-.5 0-.1.1-.2.2-.4.1-.1.1-.3.2-.3v-1.1c.6-.5 1.6-.8 2.5-.6 1.3.3 2.5-.3 2.8-1.5 0-.4.1-.8.4-1 .2-.1.4-.2.7-.3.3-.1.5-.2.7-.3.1-.1.2-.3.2-.4v-.1c.1-.4.4-.7.8-.7.2 0 .5.1.7.2.3.2.5.6.6.9 0 .1.1.2.1.3.2.5.6 1 1.2 1.1.1 0 .3 0 .4-.2.7-1.1.9-2.2.8-3.5 0 0 0-.1-.1-.4-.2-.4-.7-.6-1.5-.6-.5-.4-1-.8-1.4-1.2l-.4-.4c-.3-.3-.6-.6-.8-1 0-.1-.1-.1-.2-.1h-.3c-.1-.1-.2-.1-.3-.2l-.6-.3c-.2-.1-.6 0-.8 0h-.2c-.2-.3-.4-.6-.6-1-.2-.3-.4-.6-.5-.9h-.1s-.1 0-.2-.1h.2c.1 0 .1 0 .2.1.1.3.3.6.5.9.2.3.4.6.5.9h1.1l.6.3c.1.1.2.1.3.2h.2c.1 0 .3 0 .3.1.1.4.5.7.8.9l.4.4c.4.4.9.8 1.4 1.1.8 0 1.4.3 1.6.7.1.1.1.3.1.4.1 1.4-.1 2.5-.8 3.6-.1.2-.3.3-.6.2-.7-.1-1-.7-1.3-1.2-.1-.1-.1-.2-.1-.3-.1-.3-.3-.7-.6-.9-.2-.1-.5-.2-.7-.2-.3 0-.6.3-.7.6v.1c0 .2-.1.3-.2.5-.2.2-.5.3-.7.3-.2.1-.4.1-.6.3-.2.2-.4.6-.3.9-.3 1.3-1.5 1.9-2.9 1.6-.8-.2-1.8.1-2.3.5-.1.2 0 .4 0 .6v.6c0 .1-.1.2-.2.4-.1.1-.2.3-.2.3 0 .1.1.2.3.3.1 0 .2.1.3.2.2.1.4.2.7.3l.9 1.1c.1.1.3.2.4.2.3-.1.6-.3.9-.4.6-.3 1.2-.5 1.7-1 .6-.5.9-1.4 1.2-2.2 0-.1.1-.2.1-.3.1-.1.2-.3.4-.3.8.1 1.7.1 2.3-.1 1 .2 1.6.8 1.8 1.7.1.3.1.7.1 1 0 .4 0 .7.1 1 .3.4.6.7 1 1.1l.2.2c.1 0 .1 0 .2.1.2.1.5.1.7.4.3.5.4 1.2.3 1.9-.1.4-.3.8-.7.9-.4.2-.8.4-1.3.4l-.9-.3c-.3-.1-.5-.2-.8-.3-.7.2-1.6.5-2.4 1.3-.1 0-.1.2-.1.2s0 .1.1.1c.3.1.6 0 .8-.1.1 0 .2-.1.2-.1.3-.1.7-.1 1.1 0 .2.1.3.2.3.4 0 .6-.3 1.1-.6 1.4-.7 1-1.8 1.6-3 2.1-.8.8-1.2 2-1.7 3.1-.1.3-.2.5-.3.8-1 1.3-2.5 2.1-4 2.7-.2.1-.4.3-.5.5-.1.2-.1.4 0 .7l.1.2c.2.4.5.9.6 1.5v.2c0 .2 0 .5-.1.7-.1.2-.3.4-.4.4-.7 0-1.1-.5-1.4-.9l-.2-.2-.2-.2c-.4-.5-.7-.9-1.3-1.2-1.2-.3-2.2.2-3.2.7-.1 0-.3.1-.5.1-.4.1-.9.2-1.2.4-.1.1-.2.3-.2.5v.1c-.1 1-.3 1.7-.6 2.3-.1.2-.1.5-.1.8V69c0 .1 0 .1.1.2.1.2.1.4.3.5.2.1.5.2.7.1.2-.1.3-.3.5-.4.4-.4.7-.8 1.3-.9.3.1.6.1.8.1.5.1.7.5.9.8.3.6 0 1.3-.1 1.7-.1.2-.1.3 0 .4.2.1.4.1.6 0h.2c.4-.1.6.2.8.4.3.4.4.5.4.6z" class="st87"/><path d="M113.3 100.9c-.3-.2-.4-.5-.4-.9.1-.4.2-.7.3-1 .2-.5.3-1 .4-1.7-.3-1.4-.5-2.9-.6-4.6 0-.2.1-.4.2-.6.2-.5.4-1.1.3-1.8l-1.5-3.5c0-.6.1-1.1.4-1.5.6-.7.3-1.9.1-2.8v-.1c-.1-.5-.2-1-.3-1.4-.2-1-.4-2-.7-2.8-.7-.7-1.1-1.5-1.2-2.6l-.1-.2c-.3-1.1-.6-2.2-1.5-2.6l.1-.1c1 .5 1.3 1.6 1.6 2.7l.1.2c.1 1 .5 1.9 1.2 2.5.4.8.6 1.9.8 2.9.1.5.2 1 .3 1.4v.1c.2.9.5 2.2-.1 2.9-.3.4-.4.8-.4 1.4l1.5 3.5c0 .7-.2 1.4-.3 1.9-.1.2-.1.4-.2.6.1 1.7.3 3.2.6 4.6 0 .7-.2 1.2-.4 1.7-.1.3-.2.7-.3 1-.1.3 0 .6.3.7.9-.1 1.8-.2 2.8-.3.9-.1 1.9-.2 2.9-.3.4 0 .8-.1 1.1-.3.5-1 1-2 2-2.6.3-.9.6-1.6 1.1-2.1.2-.3.5-.5.8-.7.3-.2.5-.4.8-.7l.3-1.5c.1-.7.3-1.4.5-2 .5-1.1 4.7-4.9 4.8-5.1l.1.1s-4.3 4-4.8 5c-.2.6-.4 1.3-.5 2l-.3 1.5c-.2.3-.5.5-.8.7-.3.2-.6.4-.8.7-.5.5-.8 1.2-1 2.1-.9.6-1.4 1.5-1.9 2.6-.3.2-.7.3-1.1.4-1 .1-1.9.2-2.9.3-1.4.1-2.3.2-3.3.3z" style="fill:#90a5cd"/><linearGradient id="SVGID_79_" x1="91.288" x2="124.793" y1="64.955" y2="55.977" gradientUnits="userSpaceOnUse"><stop offset="0" style="stop-color:#bec9e1"/><stop offset=".259" style="stop-color:#b7c4de"/><stop offset=".626" style="stop-color:#a5b6d7"/><stop offset="1" style="stop-color:#8ba2cc"/></linearGradient><path d="M99.2 74.7h-.6c-1.6-.1-2.3-1.2-3-2.2l-.1-.1c-.2-.3-.3-.6-.5-.9-.2-.3-.3-.6-.5-.9l-.7-.7c-1.3-.6-1.8-1.5-1.8-2.7v-.6c0-.9-.1-1.9.1-2.7.1-.9.3-1.8.4-2.8 0-.3.1-.7.1-1 0-1.2.4-2 .8-2.8.1-.2.2-.3.2-.5v-.2c.1-1.1.2-2.2.7-2.9.3-.1.8-.1 1.3-.1s1 0 1.6-.1c1.1-.1 2.3-1.9 2.3-1.9s1.8-2.6 5.8-2.3c3.9.2 5 1.5 5.2 2.4.2.9 1.8 1 3.1 1 1.5-.1 2.4 1.1 2.5 1.2.2 0 1.5.2 2.4.5h.4c.1-.1-.1-.5-.3-.8-.1-.2-.2-.4-.3-.5-.2-.6-.4-1.3-.2-2 0-.1.1-.1.1-.2.4-.2 1.4.2 2.4.5.5.2 1.1.4 1.4.5.3.1.5 0 .6-.1.2-.2.1-.7.1-.8v-.1s.2-.1.3-.1h.2l.1.1s-.1.1-.2.1c0 0-.1 0-.2.1 0 .1.1.6-.1.8-.1.2-.4.2-.7.1-.4-.1-.9-.3-1.4-.5-.9-.3-2-.7-2.3-.5l-.1.1c-.1.6 0 1.4.2 1.9 0 .1.1.3.3.5.2.4.4.7.3.9-.1.1-.2.1-.5.1-1-.2-2.4-.5-2.4-.5s-.9-1.3-2.5-1.2c-1.9.1-3-.3-3.2-1.1-.2-1-1.3-2.1-5.1-2.4-3.9-.2-5.7 2.3-5.7 2.3 0 .1-1.2 1.8-2.4 2-.6.1-1.1.1-1.6.1s-1 0-1.2.1c-.4.7-.5 1.8-.7 2.9v.2c-.1.2-.2.3-.2.5-.4.8-.8 1.6-.7 2.8 0 .4-.1.7-.1 1-.1.9-.3 1.9-.4 2.8-.1.8-.1 1.8-.1 2.7v.6c0 1.2.6 2 1.8 2.6l.7.7c.2.3.4.6.5.9.1.3.3.6.5.9l.1.1c.7 1 1.4 2 2.9 2.1 1.1.1 2.1-.1 3.2-.4 1 0 1.9-.2 2.8-.7.4-.1.7-.3 1.1-.4.7-.3 1.4-.6 2.4-.6.2 0 .4.1.5.2 0 0 .1 0 .1.1l-.1.1s-.1 0-.1-.1c-.1-.1-.3-.2-.5-.2-1 0-1.7.3-2.4.6-.3.1-.7.3-1.1.4-1 .5-1.9.7-2.9.7-.9.2-1.7.4-2.6.4z" style="fill:url(#SVGID_79_)"/><linearGradient id="SVGID_80_" x1="85.377" x2="118.817" y1="39.87" y2="33.974" gradientUnits="userSpaceOnUse"><stop offset="0" style="stop-color:#b9c4de"/><stop offset=".278" style="stop-color:#b2bfdb"/><stop offset=".669" style="stop-color:#a0b1d4"/><stop offset="1" style="stop-color:#8ba2cc"/></linearGradient><path d="m94.2 53.3-2.1-.7h-.4c-.7.1-1 .1-1 0-.1-.1-.2-.2-.3-.4-.2-.3-.4-.6-.5-.9 0-.3-.2-.3-.5-.4-.3-.1-.7-.1-.9-.4 0 0 0-.2-.1-.5 0-.2 0-.6-.1-.9V49c-.1-.5-.1-1-.4-1.3-.1-.1-.2-.2-.3-.4-.8-.9-1.2-1.4-1.1-1.6 0 0 0-.1.1-.1l1.5-1.1c1.1-.2 2.6-.3 3-.3.5 0 1.7-.3 2-.3-.3-.5-2.1-3.1-3.7-3.6-.4-.1-.8-.2-1.1-.3-.8-.2-1.3-.3-1.4-.6 0-.1 0-.3.2-.5.7-.7 1.4-.6 1.5-.6l.6-.8.6-.9.4-1.1-.2-1.2.8-1-2.1-2.1.8-.3 1.1.3.2.5.6.5c.5 0 1.9 0 2.1-.2v-.1c0-.1 0-.2.1-.2.2-.2 1.1.1 1.2.1l.8-.4-1.7-1.4.4-.5-.9-.1-.9-.7-1.4-.1-2.9-1-1.9-.9-.3.1.9.5 1.4.9 1.5.2 2.2 1.8 1 .9-.6.4-1.4-.6-2.8-1.1c-.2.2-1.2 1.2-2.1.8-.2-.1-1.1-.5-1.9-1-.2-.3-.5-.7-.7-1-.1-.1-.1-.3-.1-.4.3-.7.5-1.5.4-2.5 0-.1-.1-.2-.1-.3l.1-.1c.1 0 .1 0 .1-.1h.1c0 .1-.1.2-.1.2h-.1c0 .1 0 .2.1.2v.1c.1 1-.1 1.8-.4 2.5 0 0 0 .2.1.3.2.4.5.7.7 1 .8.5 1.6.9 1.9 1 .9.4 2-.8 2-.8l2.9 1.1 1.4.6.4-.3-.9-.8-2.2-1.8-1.5-.2-1.4-1-1.3-.7 1-.1 1.9 1 2.9 1 1.5.1.9.7 1.1.1-.5.6 1.7 1.5-1.1.6c-.4-.1-1-.3-1.1-.1V32.3c-.3.3-2 .3-2.2.3l-.7-.5-.2-.5-1-.3-.8.1 2 2-.8 1 .2 1.2-.4 1.2-.6.9-.7.9s-.8-.1-1.5.6c-.2.2-.2.3-.2.4.1.2.6.3 1.3.5.3.1.7.2 1.1.3 1.8.5 3.8 3.6 3.8 3.7v.1h-.1c-.1 0-1.5.4-2.1.4-.4 0-1.9.1-3 .3L86.5 46c0 .1.7 1.1 1.1 1.5.1.1.2.3.3.4.3.4.4.9.4 1.4v.1c0 .4.1.7.1.9v.4c.2.3.6.4.8.4.3.1.6.1.6.5.1.3.3.6.5.8.1.1.2.3.3.4.1 0 .6 0 .9-.1.4 0 .4-.1.5 0l1.9.6c.1-.4.8-1.3 1.9-1.4 1-.1 1.1-.5 1.1-.6l.2-1.6L97 48l-.5-1.7.4-1.4.9-1c-.1-.2-.5-.8-.4-1.3.1-.3.3-.5.6-.6.5-.2 1.1-.4 1.5-.5.6-.1 1-.3 1-.5 0-.1 0-.1.1-.2.2-.1.6.1 1.2.5.3.2.5.3.7.4.1 0 .3.1.6.3.7.4 1.9 1 2.8 1 1.3 0 3.3 1.3 3.4 1.3l1.2 1.3-.6-1.5.4-.2c-.2-.2-.7-.7-1.4-1-.9-.4-3.1-1.2-3.2-1.2l-2.5-1.4-1.1-1.1.1-.1c1.1.4 3.3 1.1 3.6 1.1.4 0 3.7 2 4 2.3l1.8 1.3 1.3 1.3c.4.3 1.4 1.2 1.7 1.3.1 0 .1 0 .2.1.3.1 1.1.3 1.2.2 0-.2-.4-1.1-.5-1.4l-1.3-1.3-.6-1.6.7.4 1.1 1.3 1.4 1.1 1 .3.6.7.6-.8.9.1 1 1.8.1-.1.1.1-.2.2-1.1-1.9-.8-.1-.7.9-.7-.8-1-.3-1.4-1.1-1.1-1.3-.4-.2.5 1.2 1.3 1.2s.5 1.1.5 1.4c0 0 0 .1-.1.1-.2.1-.7 0-1.3-.2-.1 0-.2-.1-.2-.1-.3-.1-1.6-1.2-1.7-1.3l-1.3-1.3-1.8-1.3c-1.4-.9-3.6-2.2-4-2.2-.4 0-2.6-.7-3.4-1l.9.9 2.4 1.4s2.3.8 3.2 1.2c.9.4 1.5 1.1 1.5 1.1v.1l-.5.2.6 1.7-.1.1-1.4-1.5c-.1-.1-2.1-1.3-3.3-1.3-1 0-2.2-.6-2.9-1-.2-.1-.4-.2-.5-.3-.2-.1-.4-.2-.7-.4-.4-.2-.9-.6-1.1-.5 0 .3-.5.4-1.1.6-.4.1-1 .2-1.5.5-.3.1-.5.3-.5.6-.1.6.4 1.3.4 1.3l-.9 1-.4 1.4.5 1.7.3 1.6-.2 1.6s-.1.6-1.2.7c-1 .1-1.7 1-1.8 1.3.4 0 .4 0 .3.1z" style="fill:url(#SVGID_80_)"/><path d="m109.9 45.8.9.9-.2.6-2.1-.5-.2-.9 1.6-.1m0-.1-1.6.2h-.1v.1l.2.9v.1h.1l2.1.5h.1v-.1l.2-.6v-.1l-1-1z" style="fill:#98acd1"/><path d="m103.4 44.9.7.1 1.4 1.5.1.9-1.1-.3-1.3-1.7.2-.5m-.1-.2-.3.5v.2l1.3 1.7 1.1.3h.1v-.1l-.1-.9-1.4-1.5-.7-.2zM102.3 42.9l.9 1.3h-.5l-.9-1.2.5-.1m.1-.2-.7.2h-.2l.1.1.9 1.2h.7l-.1-.2-.7-1.3z" class="st92"/><path d="m83.9 35.8.7.4.6.5.2.5-1 .6h-.9V37l-.5-.1-.1-.4.3-.1V36l.7-.2m0-.1-.8.2H83v.4l-.2.1h-.1v.1l.1.4.4.2V38h1l1-.6h.1v-.1l-.2-.5-.6-.5-.6-.6z" class="st87"/><path d="m83.1 33.5.7.4h.9l.2.8.6.1.9.5 1.2.5 1 .2.3.4.4.6-1.2.5-1.6 1 .2-1-.7-.3v-.5l-.6-.6.7.1-.4-.6-.8-.1-.7.2-.4-.4-.3-.7-.8-.6.4-.5m0-.1-.4.6h-.1l.1.1.8.6.3.6.4.4h.1l.7-.2.8.1.2.3-.5.1h-.3l.2.2.6.5v.6h.1l.6.2-.2.9-.1.3.2-.1 1.6-1 1.2-.5h.1l-.1-.1-.4-.7-.3-.4-1-.2-1.2-.5-.9-.5h-.5l-.2-.8v-.1h-1l-.8-.4zM75.2 35.4s.1 0 0 0c.6.2 1.2.4 1.6.7.2.1.4.4.2.6-.2.2-.5.3-.9.5h-1c-.5-.2-.9-.4-1.1-.7 0 0 .3-.7.9-1 .1 0 .3-.1.3-.1m0-.1c-.1 0-.3.1-.4.1-.6.3-.9 1.1-.9 1.1v.1l.1.1c.3.3.6.5 1.2.7h1c.4-.2.6-.3.9-.5.1-.1.2-.2.1-.3 0-.2-.2-.4-.3-.5-.5-.4-1-.6-1.7-.8.1 0 .1 0 0 0z" class="st87"/><path d="M70.7 26.1c0 .2-.3.5-.1.6h.1c.1 0 .2.1.2.2.3.9 1 1.3 1.8 1.8-.2.4-.5.8-.5 1.3.3.5.8.7 1.2 1 .1.1.3.4.4.5.2.5 0 1-.2 1.3-.1.2-.2.5-.3.8-.5 1.6-1.3 3-1.3 3-.3.4-.6.9-.8 1.3-.1.1-.2.2-.3.2h-.1l-2.9-.9c-.6-.2-.9-.8-1.2-1.4-.2-.3-.5-.6-.7-1-.1-.3-.1-.6 0-.9.2-.4 0-.8-.1-1.2-.2-.7-.1-1.5.3-1.9.2-.2.3-.5.3-.7 0-.2-.2-.1-.3-.2H65.6c-.2-.1-.2-.3-.4-.4h-.1c-.1 0-.1-.2 0-.2.3-.9.5-1.8 1.1-2.5.1-.1.2-.1.3-.1h.6c.2 0 .5 0 .7-.2.7-.1 1.5-.2 2.4-.3l.1-.1h.2c-.1.1.1 0 .2 0m.1-.3-.2.2H70c-.1 0-.1.1-.2.1-.4.1-.9.1-1.3.2-.4 0-.7.1-1 .1-.2.1-.4.2-.6.2h-.5c-.1 0-.3.1-.4.2-.6.7-.9 1.7-1.1 2.5 0 .1-.1.2 0 .3l.1.1h.1l.1.1c.1.1.1.2.3.3H66.4c-.1.3-.2.5-.3.7-.4.5-.5 1.3-.3 2 .1.4.2.8.1 1.1-.1.3-.1.7 0 1 .1.2.2.4.4.6.1.1.2.3.3.4v.1c.3.5.6 1.1 1.2 1.3l2.9.9h.1c.2 0 .3-.1.4-.2.1-.1.1-.2.2-.3.2-.3.4-.7.6-1 0 0 .8-1.4 1.4-3 0-.1.1-.3.1-.4 0-.2.1-.3.2-.5s.5-.8.2-1.4c0-.1-.2-.5-.4-.6-.1-.1-.2-.2-.4-.2-.3-.2-.6-.4-.8-.7 0-.3.2-.5.3-.8.1-.1.2-.3.2-.4v-.1l-.1-.1c-.7-.5-1.4-.9-1.7-1.7 0-.1-.2-.3-.3-.3h-.1s0-.1.1-.2c0-.1.1-.2.1-.2v-.3z" style="fill:#b9c4de"/><radialGradient id="SVGID_81_" cx="78.604" cy="78.418" r="54.972" fx="46.948" fy="34.495" gradientUnits="userSpaceOnUse"><stop offset=".356" style="stop-color:#7cd0e6"/><stop offset=".458" style="stop-color:#6fb5d0"/><stop offset=".716" style="stop-color:#52739d"/><stop offset=".903" style="stop-color:#3f4b7c"/><stop offset="1" style="stop-color:#383b70"/></radialGradient><circle cx="77.8" cy="78" r="53.2" style="opacity:.55;fill:url(#SVGID_81_)"/><path d="M97.7 127.2s-.3-.2-.4-.2c-.1 0-.1-.1-.2-.1-.5-.3-1.1-.6-1.7-.8l-.4-.1c-1.5-.6-3.1-1.2-5.1-1.2-.4.1-.7.2-1.1.4-.2.1-.5.2-.8.3-.2 0-.4-.1-.7-.1-.8-.2-1.6-.3-2.6-.2l-4.6 1.7c-.2.1-.4.1-.6.1-.3 0-.6-.1-.9-.2-.4-.1-.8-.2-1.2-.2-1.1 0-2-.5-2.8-1.4 0-.1-.1-.3-.1-.5-.1-.5-.2-1.1-.5-1.4-.1-.2-.3-.5-.2-.9.1-.4.2-.7.4-1 .1-.2.2-.3.2-.4v-.2h-.1c-1.1.5-1.6 1.2-1.8 2.2-.1.5-.3.9-.6 1.3l-.2.2c-.7.8-1.5 1.6-2.9 1.8-.6-.2-1.3-.2-1.9-.2-.3-.1-.6-.1-.8-.2-.9-.2-1.9-.5-3.1-.5l-2.3.4c-1.5.1-2.7 1-3 1.7h-.1c.3-.7 1.6-1.6 3.1-1.7l2.3-.4c1.2 0 2.2.2 3.1.5.3.1.5.1.8.2.6 0 1.3 0 1.9.2 1.4-.1 2.1-.9 2.8-1.7l.2-.2c.3-.4.5-.7.6-1.2.2-1 .8-1.7 1.9-2.3h.3s.1.1 0 .3c0 .1-.1.3-.2.4-.1.3-.3.6-.4.9-.1.3.1.6.2.8.3.4.4 1 .5 1.5 0 .2.1.3.1.5.8.9 1.6 1.3 2.7 1.4.5 0 .9.1 1.3.2.3.1.6.1.9.2.2 0 .4.1.5-.1l4.6-1.7c1-.2 1.9 0 2.7.2.2 0 .4.1.7.1.3-.1.5-.2.7-.3.4-.1.7-.3 1.1-.4 2.1 0 3.7.6 5.2 1.2l.4.1c.7.2 1.2.6 1.8.8.1 0 .1.1.2.1.3.2.4.2.5.3l-.4-.2z" style="fill:#999cb5"/><path d="M77.7 24.8c7.2 0 14.1 1.4 20.7 4.2 6.3 2.7 12.4 6.9 16.9 11.4 4.9 4.9 8.7 10.6 11.4 16.9 2.8 6.6 4.2 13.5 4.2 20.7 0 7.2-1.4 14.1-4.2 20.7-2.7 6.3-6.5 12-11.4 16.9-4.9 4.9-10.6 8.7-16.9 11.4-6.6 2.8-13.5 4.2-20.7 4.2-7.2 0-14.1-1.4-20.7-4.2-6.3-2.7-12-6.5-16.9-11.4-4.9-4.9-8.7-10.6-11.4-16.9-2.8-6.6-4.2-13.5-4.2-20.7 0-7.2 1.4-14.1 4.2-20.7 2.7-6.3 6.5-12 11.4-16.9C45 35.5 50.7 31.7 57 29c6.5-2.8 13.5-4.2 20.7-4.2m0-.6C48 24.2 23.9 48.3 23.9 78c0 29.7 24.1 53.7 53.7 53.7 29.7 0 53.7-24.1 53.7-53.7.1-29.7-23.9-53.8-53.6-53.8z" style="fill:#aa872f"/><path d="M64.9 60.1v1.3c-3.8.5-4.1 1.7-4.1 4.2v30.9h-1.5L36 68.1h-.1v21c0 3.8 1.1 4.8 5 5.2v1.3H29v-1.3c3.1-.4 4.6-.7 4.6-4.2V65.2c-2.9-3.6-3.8-3.8-4.5-3.8v-1.3h11.1l18.2 22.4h.1V66.6c0-3.1-.6-4.9-4.9-5.2v-1.3h11.3m.5-.5H53.1v2.3h.5c3.8.3 4.4 1.6 4.4 4.7v14.7L40.6 59.8l-.1-.2H28.6v2.3h.5c.4 0 1.1 0 4 3.5v24.7c0 3.1-1.1 3.4-4.2 3.7l-.4.1v2.2h12.9v-2.2H41c-3.7-.4-4.6-1.2-4.6-4.7V69.3L59 96.9l.1.2h2.2V65.6c0-2.3.1-3.3 3.7-3.7l.4-.1v-2.2zM91.4 59.3v11.4h-1.5C89 67 85.9 61 79.7 61c-2.7 0-5.6 1.6-5.6 5 0 2.8 1 4 5.4 6.2l7.7 3.8c1.8.9 5.8 3.9 5.8 9.7 0 4.6-3.4 11-13 11-5 0-7.4-1.8-9-1.8-1.1 0-1.4.9-1.6 1.8h-1.5v-13h1.5c1.1 5.3 4.1 11.2 10.8 11.2 6.3 0 6.6-5.2 6.6-5.9 0-3.5-2.5-4.8-5.9-6.4l-3.5-1.7c-9-4.3-9-8.8-9-11.2 0-3.2 1.6-10.3 11.6-10.3 4.2 0 6.7 1.7 8.2 1.7 1.2 0 1.5-.8 1.7-1.8h1.5m.5-.5h-2.5l-.1.4c-.3 1-.5 1.4-1.3 1.4-.5 0-1.2-.2-2-.5-1.5-.5-3.5-1.2-6.2-1.2-4.5 0-7.8 1.4-9.9 4.2-1.9 2.6-2.2 5.5-2.2 6.7 0 2.5 0 7.2 9.3 11.7l3.5 1.7c3.6 1.7 5.6 2.8 5.6 6 0 .6-.2 5.4-6.1 5.4-7.3 0-9.6-7.6-10.3-10.8l-.1-.4h-2.4v14h2.4l.1-.4c.2-1 .5-1.4 1.1-1.4.5 0 1.2.2 2 .5 1.6.5 3.7 1.3 7 1.3 4.4 0 8.1-1.4 10.5-3.9 1.9-2 3-4.8 3-7.6 0-6.9-5.4-9.8-6-10.1L79.6 72c-4.5-2.2-5.1-3.3-5.1-5.8 0-3.1 2.7-4.5 5.1-4.5 7.2 0 9.6 8.4 9.8 9.3l.1.4h2.4V58.8zM125.8 60.1v10.5h-1.3c-1.2-5.5-2.6-8.8-11.6-8.8-2.8 0-3.8.2-3.8 2.5v12.2h.3c6.3 0 7-3.7 7.8-7.8h1.3v17.7h-1.3c-.6-4.3-1.4-8.1-8-8.1v12.2c0 3.5 2.1 3.6 5.8 3.7v1.3H96v-1.3c3-.3 4.6-.5 4.6-3.7V65.2c0-3.5-2.2-3.6-4.6-3.7v-1.3h29.8m.5-.6H95.5v2.3h.6c2.5.2 4.1.3 4.1 3.2v25.4c0 2.8-1.1 2.9-4.1 3.2h-.4v2.2h19.7v-2.3h-.5c-3.9-.2-5.3-.4-5.3-3.2V78.8c5.6.2 6.5 3.3 7.1 7.7l.1.4h2.2V68.2h-2.2l-.1.4c-.7 3.9-1.3 7.3-7.1 7.4V64.4c0-1.7.4-2 3.3-2 4.1 0 6.8.7 8.4 2.2 1.5 1.3 2.1 3.3 2.7 6.2l.1.4h2.2V59.6z" class="st97"/><linearGradient id="SVGID_82_" x1="29.145" x2="63.356" y1="96.925" y2="61.781" gradientUnits="userSpaceOnUse"><stop offset="0" style="stop-color:#213b73;stop-opacity:.7"/><stop offset="1" style="stop-color:#213b73;stop-opacity:.5"/></linearGradient><path d="M29 95.3c2.9-.4 5.4-2.2 5.4-5.7V68.1c-3-3.7-3.8-4.1-4.5-4.1v-3.3h11.2l18.4 22.6h.1V68c0-3.2-2-4.8-6.2-4.8v-2.5h13V63c-3.3.1-4.1 1.2-4.1 3.8v31.3h-3.6L38 72.6v16.6c.1 3.9 1.4 5.8 4.5 5.8v2.8H28.9l.1-2.5z" style="fill:url(#SVGID_82_)"/><linearGradient id="SVGID_83_" x1="70.04" x2="95.833" y1="79.351" y2="79.351" gradientUnits="userSpaceOnUse"><stop offset="0" style="stop-color:#213b73;stop-opacity:.7"/><stop offset="1" style="stop-color:#213b73;stop-opacity:.5"/></linearGradient><path d="M90.4 72.3c-1-3.7-4.5-9.1-9.8-9.2-2.3-.1-5.1 1-5.1 3.7 0 2.9 1.9 4 6.4 6.2l6.3 3.5c1.8.9 6.2 4.6 6.2 10.4 0 4.7-3.1 11.9-13.5 11.6-3.9-.1-7.4-2-9.1-2-1.1 0-1.4 1-1.6 1.8h-1.5V83.5h1.9c1.1 5.4 4.2 11.1 10.5 11.1 4.5 0 5.5-2.9 5.5-3.6 0-3.6-1.4-4.9-4.8-6.5l-3.6-1.7c-9.1-4.3-9.1-9.6-9.1-12.1 0-3.2 1.6-10.4 11.7-10.4 4.2 0 6.1 1.7 7.7 1.7 1.2 0 1.5-.8 1.7-1.8h2.6v12.1h-2.4z" style="fill:url(#SVGID_83_)"/><linearGradient id="SVGID_84_" x1="119.148" x2="102.429" y1="94.932" y2="58.229" gradientUnits="userSpaceOnUse"><stop offset="0" style="stop-color:#213b73;stop-opacity:.5"/><stop offset="1" style="stop-color:#213b73;stop-opacity:.7"/></linearGradient><path d="M96.2 60.9h31.2v11.4h-2.7c-1.2-6.2-4.4-8.7-10.1-8.7-2.9 0-3.4.2-3.4 2.5v11.5c6.6.1 6.2-3.7 6.9-7.9h1.9v18.5h-1.9c-.6-4.9-2.8-8-7-8v10.7c0 3.5 2 3.9 5.7 4.1v2.9H96.7V95c3-.3 4.7-.8 4.7-4.1V67.1c0-3.5-2.2-3.6-5.2-3.8v-2.4z" style="fill:url(#SVGID_84_)"/><path d="M29 94.3c3.1-.4 4.6-.7 4.6-4.2V65.2c-1-1.2-1.7-2-2.3-2.6-1.2-1.1-1.7-1.2-2.1-1.2v-1.3h11.1l18.2 22.4h.1V66.6c0-1.9-.2-3.2-1.3-4.1-.7-.6-1.9-1-3.6-1.1v-1.3H65v1.3c-3.8.5-4.1 1.7-4.1 4.2v30.9h-1.5L36 68.1h-.1v21c0 3.8 1.1 4.8 5 5.2v1.3H29v-1.3zM89.9 70.7C89 67 85.9 61 79.7 61c-2.7 0-5.6 1.6-5.6 5 0 .8.1 1.5.3 2 .2.5.4.9.8 1.3.8.9 2.2 1.8 4.4 2.9l7.7 3.8c1.8.9 5.8 3.9 5.8 9.7 0 4.6-3.4 11-13 11-5 0-7.4-1.8-9-1.8-1.1 0-1.4.9-1.6 1.8H68v-13h1.5c.3 1.7.9 3.4 1.6 5 .8 1.5 1.7 2.9 3 4 1.6 1.4 3.6 2.2 6.1 2.2 6.3 0 6.6-5.2 6.6-5.9 0-3.5-2.5-4.8-5.9-6.4l-3.5-1.7c-3.7-1.8-5.9-3.6-7.2-5.3-1.8-2.4-1.8-4.5-1.8-5.9 0-3.2 1.6-10.3 11.6-10.3 4.2 0 6.7 1.7 8.2 1.7 1.2 0 1.5-.8 1.7-1.8h1.6v11.4h-1.6zM96 60.1h29.8v10.5h-1.3c-1.2-5.5-2.6-8.8-11.6-8.8-2.8 0-3.8.2-3.8 2.5v12.2c6.5.1 7.3-3.6 8-7.8h1.3v17.7h-1.3c-.6-4.3-1.4-8.1-8-8.1v12.2c0 3.5 2.1 3.6 5.8 3.7v1.3H96v-1.3c3-.3 4.6-.5 4.6-3.7V65.2c0-1.8-.6-2.7-1.6-3.2-.8-.4-1.9-.5-3.1-.5v-1.4z" class="st64"/><linearGradient id="SVGID_85_" x1="64.212" x2="35.392" y1="78.75" y2="78.75" gradientUnits="userSpaceOnUse"><stop offset=".093" style="stop-color:#bfbebe;stop-opacity:.7"/><stop offset=".373" style="stop-color:#c5c5c4;stop-opacity:.7928"/><stop offset=".768" style="stop-color:#d7d7d6;stop-opacity:.9234"/><stop offset="1" style="stop-color:#e5e5e4"/></linearGradient><path d="M64.9 61.4v-.5c-1.6.1-3 .1-3.8.7-1.1.8-1.4 2.1-1.4 3.9v29.9L37 67.8c-.4-.5-.9-.8-1.4-.7-.7.2-.6.6-.6 1.1v20.6c0 1.8 1 3.2 1.7 3.8 0 0-.8-.9-.8-3.6V68.1h.1l23.4 28.4h1.5V65.3c0-2 .6-2.6.9-2.8.6-.6 1.6-.9 3.1-1.1z" style="fill:url(#SVGID_85_)"/><linearGradient id="SVGID_86_" x1="34.923" x2="34.923" y1="95.65" y2="94.47" gradientUnits="userSpaceOnUse"><stop offset="0" style="stop-color:#b2b2b2;stop-opacity:.7"/><stop offset=".369" style="stop-color:#cbcbcb;stop-opacity:.8108"/><stop offset=".74" style="stop-color:#dededd;stop-opacity:.922"/><stop offset="1" style="stop-color:#e5e5e4"/></linearGradient><path d="M40.9 95.6H29v-.3s2.4-.4 4-.8c.2-.1 3.6 0 3.8 0 1.9.5 4.1.8 4.1.8v.3z" style="fill:url(#SVGID_86_)"/><linearGradient id="SVGID_87_" x1="105.478" x2="105.478" y1="95.635" y2="94.01" gradientUnits="userSpaceOnUse"><stop offset="0" style="stop-color:#b2b2b2;stop-opacity:.7"/><stop offset=".369" style="stop-color:#cbcbcb;stop-opacity:.8108"/><stop offset=".74" style="stop-color:#dededd;stop-opacity:.922"/><stop offset="1" style="stop-color:#e5e5e4"/></linearGradient><path d="M114.9 95.6H96v-.3s3.6-.6 5.3-1.1c1.1-.4 6.6-.3 7.9.1 1.5.4 5.7 1 5.7 1v.3z" style="fill:url(#SVGID_87_)"/><path d="M33.6 65.2c-.9-1.2-2.5-2.7-2.5-2.7-1.1-1-1.7-1-2-1.1v-.8c2 0 2.4.8 2.7 1.4.9 1.5 1.8 3.2 1.8 3.2zM58.5 66.4c0-1.9-.4-3.1-1.4-3.9-.8-.6-2-1-3.5-1.1v-.5c1.6.1 3.1.2 4 1 .7.6 1 1.4 1 2.3.1 1-.1 2.2-.1 2.2z" class="st104"/><linearGradient id="SVGID_88_" x1="80.977" x2="80.977" y1="96.953" y2="78.091" gradientUnits="userSpaceOnUse"><stop offset="0" style="stop-color:#b2b2b2;stop-opacity:.7"/><stop offset=".369" style="stop-color:#cbcbcb;stop-opacity:.8108"/><stop offset=".74" style="stop-color:#dededd;stop-opacity:.922"/><stop offset="1" style="stop-color:#e5e5e4"/></linearGradient><path d="M79.5 96.6c-2.9 0-5-.7-6.5-1.3-.9-.3-1.6-.5-2.1-.5-.6 0-.9.2-1.1.5-.2.3-.4.8-.5 1.3h-.4c0-.7.1-1 .2-1.5.4-1.2 1-1.6 1.8-1.5.6.1 1.2.7 2.1 1.1 1.8.8 3.7 1.7 6.4 1.7 4.5 0 7.2-1.8 9.3-4.1 1.9-2.1 2.8-4.6 3-7 .3-3.7-2-7.3-2-7.3s2.9 2.5 3.1 7.4c.1 2.7-.9 5.5-3.2 7.8-1.8 1.9-5.1 3.5-10.1 3.4z" style="fill:url(#SVGID_88_)"/><path d="M69.9 87.8c-.7-1.4-.5-2.1-.8-4.2h.3c.4 2 .7 2.7 1.2 4 .3.9.7 1.5 1 2.1.4.7.8 1.3 1.4 2 0 0-2.2-2.2-3.1-3.9zM86.5 87.3c-.8-2.1-2.2-3-5.4-4.6L77.5 81c-3.4-1.6-7.2-4-8.5-7.4 0 0 1.4 1.9 3.9 3.7 1.9 1.4 8.2 4.2 8.2 4.2 2 1 3.2 2 4.2 3.2 1.1 1.5 1.2 2.6 1.2 2.6z" class="st104"/><linearGradient id="SVGID_89_" x1="91.506" x2="74.37" y1="64.99" y2="64.99" gradientUnits="userSpaceOnUse"><stop offset="0" style="stop-color:#bfbebe;stop-opacity:.7"/><stop offset=".246" style="stop-color:#cccbcb;stop-opacity:.7738"/><stop offset=".689" style="stop-color:#dededd;stop-opacity:.9068"/><stop offset="1" style="stop-color:#e5e5e4"/></linearGradient><path d="M91.4 70.7h-1.5l-.1-.4c-.6-2-1.7-4.5-3.6-6.4-1.6-1.7-3.9-2.9-6.4-2.9-2.7 0-4.7 1.3-5.4 2.9-.5 1.2-.5 2.3-.4 3.2.2 1.3.7 2 1.2 2.5 0 0-1.2-.7-1.7-2.3-.4-1.1-.6-2.4-.1-3.7.6-1.5 2.4-3.6 6.2-3.6 3.3 0 5.3 1.8 6.9 3.7 2.5 3 3.5 6.9 3.5 6.9h1.2s-.7-1.4-.9-3.1c-.1-.8-.1-4.3.1-5.3.2-1.4.8-2.9.8-2.9h.3v11.4z" style="fill:url(#SVGID_89_)"/><linearGradient id="SVGID_90_" x1="118.385" x2="105.009" y1="79.974" y2="79.974" gradientUnits="userSpaceOnUse"><stop offset="0" style="stop-color:#b2b2b2;stop-opacity:.7"/><stop offset=".369" style="stop-color:#cbcbcb;stop-opacity:.8108"/><stop offset=".74" style="stop-color:#dededd;stop-opacity:.922"/><stop offset="1" style="stop-color:#e5e5e4"/></linearGradient><path d="M109.2 91.2s-1.1-.6-1.3-2.4c-.1-1.3-.1-6.9-.1-9.2 0-.7.3-1.2.8-1.4.3-.1 1-.2 1.1-.1 4.1.1 5.7 1.2 6.7 3.9.7 2 .9 3.8.9 3.8h.8c0-1-.8-4.6-.8-5.2 0-1.9-.2-3.8.1-6.6.2-2.5.8-5.2.8-5.2h.3v17.7h-1.3l-.1-.4c-.2-1.5-.5-2.9-1-4-1-2.4-3-3.7-7-3.7v10.4c0 .6.1 2.4.1 2.4z" style="fill:url(#SVGID_90_)"/><linearGradient id="SVGID_91_" x1="125.972" x2="105.003" y1="68.349" y2="68.349" gradientUnits="userSpaceOnUse"><stop offset="0" style="stop-color:#b2b2b2;stop-opacity:.7"/><stop offset=".369" style="stop-color:#cbcbcb;stop-opacity:.8108"/><stop offset=".74" style="stop-color:#dededd;stop-opacity:.922"/><stop offset="1" style="stop-color:#e5e5e4"/></linearGradient><path d="M109.1 76.6s-1.1-1.8-1.1-3.1c0-1.8-.2-9.2-.2-9.2 0-2.9 2.5-3.2 4.9-3.2 4 0 7.9.5 9.7 2.7 1.4 1.7 2.1 6.8 2.1 6.8h.6s-.6-7.5-.6-8.6c0-.9.8-1.9.8-1.9h.4v10.5h-1.3s-.1-.7-.4-1.6c-.3-1.4-.9-3.1-2.1-4.4-1.8-2-5-2.7-9.3-2.7-2.9 0-3.5.4-3.6 2.3l.1 12.4z" style="fill:url(#SVGID_91_)"/><path d="M100.6 64.9c-.1-1.5-.5-2.4-1.5-2.9-.7-.4-1.7-.5-3.1-.5v-.3c1.8-.1 2.9-.1 3.4.1.9.4 1.3 1 1.4 2 .1.7-.2 1.6-.2 1.6z" class="st104"/><path d="M190.2 29.2c0-2.4-.1-6.9-.7-8-.3-.5-1-.7-1.9-.8l-1-.1c-.2-.3-.2-.8.1-.9 1.5.1 2.9.1 4.4.1 1.6 0 2.7 0 4.1-.1.3.2.3.7.1.9l-.9.1c-1 .1-1.7.4-1.9.9-.5 1.3-.5 5.7-.5 7.9v4.4c0 3.4-.5 6.9-2.7 9.3-1.7 1.8-4.5 2.8-7.4 2.8-2.7 0-5.4-.5-7.3-2.1-2.1-1.7-3-4.5-3-9.2v-9.2c0-4-.1-4.7-2.3-4.9l-1-.1c-.2-.2-.2-.8.1-.9 1.9.1 3.3.1 4.8.1 1.6 0 2.9 0 4.8-.1.2.1.3.8.1.9l-.9.1c-2.2.2-2.3.9-2.3 4.9v8.4c0 6.2 1.9 10.4 7.9 10.4 5.6 0 7.8-4.4 7.8-10.3v-4.5zM194.7 43.5c0-1.3.9-2.3 2.2-2.3 1.3 0 2.2 1 2.2 2.3s-.9 2.1-2.2 2.1c-1.1 0-2.2-.8-2.2-2.1zM210.4 45.7c-3.3 0-5.3-1-6-1.4-.5-.9-1-3.6-1-5.4.2-.3.8-.3.9-.1.6 2 2.2 5.8 6.7 5.8 3.3 0 4.8-2.1 4.8-4.5 0-1.7-.3-3.6-3.2-5.4l-3.7-2.4c-1.9-1.3-4.2-3.5-4.2-6.7 0-3.7 2.9-6.7 7.9-6.7 1.2 0 2.6.2 3.6.5.5.2 1 .2 1.4.2.3.9.7 3.1.7 4.7-.2.2-.8.3-1 .1-.5-1.9-1.6-4.4-5.3-4.4-3.8 0-4.6 2.5-4.6 4.3 0 2.2 1.9 3.9 3.3 4.8l3.1 1.9c2.4 1.5 4.8 3.8 4.8 7.4.1 4.4-3.1 7.3-8.2 7.3zM221.9 43.5c0-1.3.9-2.3 2.2-2.3 1.3 0 2.2 1 2.2 2.3s-.9 2.1-2.2 2.1c-1.2 0-2.2-.8-2.2-2.1zM261.5 38.5c0 1.2 0 5.8.1 6.8-.1.2-.3.4-.7.4-.5-.7-1.6-2-5-5.9l-9-10.2c-1-1.2-3.7-4.4-4.5-5.2h-.1c-.2.5-.2 1.4-.2 2.5v8.5c0 1.8 0 6.9.7 8 .2.4 1 .7 2 .7l1.2.1c.2.3.2.8-.1 1-1.7-.1-3.1-.1-4.5-.1-1.6 0-2.7 0-4 .1-.3-.2-.3-.7-.1-1l1-.1c.9-.1 1.5-.3 1.7-.8.5-1.4.5-6.1.5-8V24.2c0-1.1 0-1.9-.9-2.8-.5-.5-1.5-.8-2.4-.9l-.7-.1c-.2-.2-.2-.8.1-1 1.6.1 3.7.1 4.4.1.6 0 1.3 0 1.8-.1.8 2 5.4 7.1 6.6 8.5l3.8 4.2c2.7 3 4.6 5.2 6.4 7h.1c.2-.2.2-.8.2-1.6v-8.3c0-1.8 0-6.9-.8-8-.2-.3-.9-.6-2.4-.8l-.7-.1c-.3-.2-.2-.9.1-1 1.8.1 3.1.1 4.6.1 1.7 0 2.7 0 4-.1.3.2.3.7.1 1l-.5.1c-1.2.2-2 .5-2.2.8-.7 1.4-.6 6.2-.6 8v9.3zM273.1 37.1c.6-.2.7-.5.7-1.1v-1.8c0-1.4-.4-3.4-2.8-3.4-1.1 0-2.4.5-2.5 1.7 0 .6-.1 1.1-.4 1.3-.6.5-1.6.7-2.2.7-.3 0-.5-.2-.5-.5 0-2 4.4-4.8 7.2-4.8s4.1 1.6 4 4.5l-.2 6.7c-.1 1.8.3 3.4 1.8 3.4.4 0 .7-.1 1-.2.2-.1.4-.3.5-.3.2 0 .3.2.3.5 0 .2-1.4 1.7-3.3 1.7-.9 0-1.9-.3-2.5-1.2-.2-.2-.4-.5-.6-.5-.3 0-.7.3-1.5.8-.9.5-1.7 1-2.8 1-1.1 0-2.1-.3-2.7-.9-.7-.7-1.2-1.6-1.2-2.7 0-1.5.7-2.4 3.2-3.3l4.5-1.6zm-2.4 6.8c.8 0 2-.6 2.4-1 .5-.5.5-1 .5-1.8l.1-2.3c0-.4-.2-.5-.4-.5s-.9.2-1.6.4c-2.3.8-3.4 1.4-3.4 2.9 0 .6.4 2.3 2.4 2.3zM286.1 31.5c-.7 0-.7.1-.7.9v7.3c0 2.3.3 4.3 2.8 4.3.4 0 .7-.1 1-.2.3-.1.9-.5 1-.5.3 0 .5.4.4.7-.7.8-2.1 1.8-4.1 1.8-3.3 0-4-1.9-4-4.2v-8.9c0-1 0-1.1-.8-1.1h-1.1c-.2-.2-.3-.6-.1-.8 1.1-.3 2.1-.9 2.5-1.2.5-.5 1.2-1.5 1.6-2.3.2-.1.7-.1.8.2v1.7c0 .7 0 .7.7.7h4.3c.5.3.4 1.4 0 1.6h-4.3zM294.5 34c0-1.5 0-1.7-1-2.4l-.3-.2c-.2-.2-.2-.6 0-.7.9-.3 3.1-1.3 4-1.9.2 0 .3.1.4.2-.1 1.4-.2 3.2-.2 4.8v7c0 2.8.1 3.2 1.5 3.4l.8.1c.3.2.2.9-.1 1-1.2-.1-2.3-.1-3.6-.1-1.4 0-2.6 0-3.6.1-.3-.1-.3-.8-.1-1l.8-.1c1.4-.2 1.5-.6 1.5-3.4V34zm3.2-11.1c0 1.4-1 2-2.1 2-1.2 0-2-.9-2-1.9 0-1.3.9-2.1 2.1-2.1 1.2 0 2 .9 2 2zM317.1 37.3c0 4.8-3.3 8.3-8.2 8.3-4.5 0-7.9-3.1-7.9-8s3.7-8.4 8.3-8.4c4.3.1 7.8 3.3 7.8 8.1zm-8.3-6.9c-2.6 0-4.5 2.4-4.5 6.7 0 3.5 1.6 7.3 5 7.3s4.5-3.6 4.5-6.6c0-3.2-1.3-7.4-5-7.4zM320.8 34c0-1.5 0-1.7-1-2.4l-.3-.2c-.2-.2-.2-.6 0-.7.9-.3 3.1-1.3 3.9-1.9.2 0 .3.1.4.3-.1.9-.1 1.5-.1 1.8 0 .2.2.4.4.4 1.6-1 3.5-2 5.4-2 3.2 0 4.5 2.2 4.5 4.8v6.7c0 2.8.1 3.2 1.5 3.4l.9.1c.3.2.2.9-.1 1-1.2-.1-2.3-.1-3.6-.1-1.4 0-2.6 0-3.6.1-.3-.1-.3-.8-.1-1l.7-.1c1.4-.2 1.5-.6 1.5-3.4V35c0-2.2-1-3.8-3.6-3.8-1.5 0-2.8.6-3.3 1.4-.5.7-.6 1.2-.6 2.3v5.9c0 2.8.1 3.1 1.5 3.4l.7.1c.3.2.2.9-.1 1-1-.1-2.2-.1-3.5-.1-1.4 0-2.6 0-3.6.1-.3-.1-.3-.8-.1-1l.8-.1c1.4-.2 1.5-.6 1.5-3.4V34zM345.5 37.1c.6-.2.7-.5.7-1.1v-1.8c0-1.4-.4-3.4-2.8-3.4-1.1 0-2.4.5-2.5 1.7 0 .6-.1 1.1-.4 1.3-.6.5-1.6.7-2.2.7-.3 0-.5-.2-.5-.5 0-2 4.4-4.8 7.2-4.8s4.1 1.6 4 4.5l-.2 6.7c-.1 1.8.3 3.4 1.8 3.4.4 0 .7-.1 1-.2.2-.1.4-.3.5-.3.2 0 .3.2.3.5 0 .2-1.4 1.7-3.3 1.7-.9 0-1.9-.3-2.5-1.2-.2-.2-.4-.5-.6-.5-.3 0-.7.3-1.5.8-.9.5-1.7 1-2.8 1-1.1 0-2.1-.3-2.7-.9-.7-.7-1.2-1.6-1.2-2.7 0-1.5.7-2.4 3.2-3.3l4.5-1.6zm-2.4 6.8c.8 0 2-.6 2.4-1 .5-.5.5-1 .5-1.8l.1-2.3c0-.4-.2-.5-.4-.5s-.9.2-1.6.4c-2.3.8-3.4 1.4-3.4 2.9 0 .6.5 2.3 2.4 2.3zM359.3 40.8c0 2.8.1 3.2 1.5 3.4l.9.1c.3.2.2.9-.1 1-1.3-.1-2.4-.1-3.8-.1s-2.6 0-3.7.1c-.3-.1-.3-.8-.1-1l.9-.1c1.4-.2 1.5-.6 1.5-3.4V23.2c0-2.3 0-2.5-1.2-3.2l-.4-.2c-.2-.1-.2-.7 0-.8 1-.3 2.8-.9 4.2-1.6.2 0 .3.1.4.2 0 1.2-.1 3.1-.1 4.8v18.4zM175.4 91.9c-3.3 0-5.3-1-6-1.4-.5-.9-1-3.6-1-5.4.2-.3.8-.3.9-.1.6 2 2.2 5.8 6.7 5.8 3.3 0 4.8-2.1 4.8-4.5 0-1.7-.3-3.6-3.2-5.4l-3.7-2.4c-1.9-1.3-4.2-3.5-4.2-6.7 0-3.7 2.9-6.7 7.9-6.7 1.2 0 2.6.2 3.6.5.5.2 1 .2 1.4.2.3.9.7 3.1.7 4.7-.2.2-.8.3-1 .1-.5-1.9-1.6-4.4-5.3-4.4-3.8 0-4.6 2.5-4.6 4.3 0 2.2 1.9 3.9 3.3 4.8l3.1 1.9c2.4 1.5 4.8 3.8 4.8 7.4.1 4.3-3.1 7.3-8.2 7.3zM198.4 76.1c.3.3.6.9.6 1.6 0 .7-.4 1.4-.9 1.4-.2 0-.4-.1-.5-.3-.9-1-2.3-2.1-3.9-2.1-2.7 0-5.4 2.1-5.4 6.2 0 3 2.1 6.6 6.2 6.6 2.2 0 3.4-1 4.3-2.3.3-.1.7.2.7.5-1.3 2.9-4.2 4-6.5 4-2.1 0-4-.7-5.3-2-1.4-1.3-2.2-3.2-2.2-5.7 0-4.2 2.9-8.6 9.4-8.6 1 0 2.5.2 3.5.7zM203.5 80.1c0-1.5 0-1.7-1-2.4l-.3-.2c-.2-.2-.2-.6 0-.7.9-.3 3.1-1.3 4-1.9.2 0 .3.1.4.2-.1 1.4-.2 3.2-.2 4.8v7c0 2.8.1 3.2 1.5 3.4l.8.1c.3.2.2.9-.1 1-1.2-.1-2.3-.1-3.6-.1-1.4 0-2.6 0-3.6.1-.3-.1-.3-.8-.1-1l.8-.1c1.4-.2 1.5-.6 1.5-3.4v-6.8zm3.2-11c0 1.4-1 2-2.1 2-1.2 0-2-.9-2-1.9 0-1.3.9-2.1 2.1-2.1 1.3-.1 2 .9 2 2zM213.7 81.3c-1 0-1 .1-1 1 0 3.9 2.3 7.3 6.4 7.3 1.3 0 2.4-.4 3.6-1.9.4-.1.7.1.7.5-1.3 2.6-4.1 3.6-6.1 3.6-2.5 0-4.5-1.1-5.6-2.6-1.2-1.5-1.6-3.3-1.6-5 0-4.8 3.1-8.8 7.8-8.8 3.3 0 5.5 2.3 5.5 4.6 0 .5-.1.9-.2 1-.1.2-.7.3-2.3.3h-7.2zm2.4-1.2c2.9 0 3.7-.2 4-.4.1-.1.2-.2.2-.7 0-1.1-.7-2.4-3-2.4S213 78.7 213 80c0 .1 0 .2.3.2h2.8zM226.8 80.1c0-1.5 0-1.7-1-2.4l-.3-.2c-.2-.2-.2-.6 0-.7.9-.3 3.1-1.3 3.9-1.9.2 0 .3.1.4.3-.1.9-.1 1.5-.1 1.8 0 .2.2.4.4.4 1.6-1 3.5-2 5.4-2 3.2 0 4.5 2.2 4.5 4.8v6.7c0 2.8.1 3.2 1.5 3.4l.9.1c.3.2.2.9-.1 1-1.2-.1-2.3-.1-3.6-.1-1.4 0-2.6 0-3.6.1-.3-.1-.3-.8-.1-1l.7-.1c1.4-.2 1.5-.6 1.5-3.4v-5.8c0-2.2-1-3.8-3.6-3.8-1.5 0-2.8.6-3.3 1.4-.5.7-.6 1.2-.6 2.3v5.9c0 2.8.1 3.1 1.5 3.4l.7.1c.3.2.2.9-.1 1-1-.1-2.2-.1-3.5-.1-1.4 0-2.6 0-3.6.1-.3-.1-.3-.8-.1-1l.8-.1c1.4-.2 1.5-.6 1.5-3.4v-6.8zM256.2 76.1c.3.3.6.9.6 1.6 0 .7-.4 1.4-.9 1.4-.2 0-.4-.1-.5-.3-.9-1-2.3-2.1-3.9-2.1-2.7 0-5.4 2.1-5.4 6.2 0 3 2.1 6.6 6.2 6.6 2.2 0 3.4-1 4.3-2.3.3-.1.7.2.7.5-1.3 2.9-4.2 4-6.5 4-2.1 0-4-.7-5.3-2-1.4-1.3-2.2-3.2-2.2-5.7 0-4.2 2.9-8.6 9.4-8.6.9 0 2.4.2 3.5.7zM262.4 81.3c-1 0-1 .1-1 1 0 3.9 2.3 7.3 6.4 7.3 1.3 0 2.4-.4 3.6-1.9.4-.1.7.1.7.5-1.3 2.6-4.1 3.6-6.1 3.6-2.5 0-4.5-1.1-5.6-2.6-1.2-1.5-1.6-3.3-1.6-5 0-4.8 3.1-8.8 7.8-8.8 3.3 0 5.5 2.3 5.5 4.6 0 .5-.1.9-.2 1-.1.2-.7.3-2.3.3h-7.2zm2.4-1.2c2.9 0 3.7-.2 4-.4.1-.1.2-.2.2-.7 0-1.1-.7-2.4-3-2.4s-4.3 2.1-4.3 3.4c0 .1 0 .2.3.2h2.8zM174.3 123.2c0 1 .1 1 1.3 1h2.6c1.6 0 2.8-.1 3.3-.2.4-.2.7-.3 1-1.4l.3-1.6c.2-.2.9-.2 1 0 0 .9-.2 2.5-.2 3.9s.2 2.9.2 3.8c-.2.2-.7.2-1 0l-.4-1.5c-.2-.7-.5-1.2-1.2-1.5-.5-.2-1.5-.2-3-.2h-2.6c-1.2 0-1.3 0-1.3 1v5.4c0 4.1.1 4.7 2.4 4.8l1.3.1c.2.2.2.9-.1 1-2.3-.1-3.6-.1-5.2-.1-1.7 0-3 0-4.8.1-.2-.1-.3-.7-.1-1l1-.1c2.2-.3 2.3-.8 2.3-4.8v-14c0-4.1-.1-4.6-2.3-4.9l-.6-.1c-.2-.2-.2-.9.1-1 1.6.1 2.9.1 4.5.1h7.1c2.5 0 4.7 0 5.2-.1 0 1.8 0 3.6.1 5.1-.1.2-.7.3-.9.1-.3-1.7-.8-3.2-2.7-3.7-.9-.2-2.1-.2-3.8-.2h-2.4c-1.2 0-1.2.1-1.2 1.6v8.4zM202.6 130.1c0 4.8-3.3 8.3-8.2 8.3-4.5 0-7.9-3.1-7.9-8s3.7-8.4 8.3-8.4c4.3.1 7.8 3.3 7.8 8.1zm-8.3-6.9c-2.6 0-4.5 2.4-4.5 6.7 0 3.5 1.6 7.3 5 7.3s4.5-3.6 4.5-6.6c0-3.2-1.3-7.4-5-7.4zM208.3 132.2c0 2.7.7 4.5 3.6 4.5 1 0 2.3-.4 3.1-1.2.5-.5.8-1 .8-2.2v-6.4c0-2.5-.3-2.6-1.4-3.1l-.5-.2c-.3-.2-.3-.7 0-.9 1.6 0 3.7-.3 4.5-.7.2 0 .3.1.3.3-.1.7-.1 1.9-.1 3.4v6.5c0 3.1.1 4.2 1.2 4.2.5 0 1-.1 1.5-.2.2.2.3 1 0 1.1-1.5.3-3.8.7-5.1 1.4-.2 0-.4-.1-.5-.3V137c0-.3-.1-.5-.3-.5-1.2.7-3.1 2-5.4 2-3.4 0-4.7-1.7-4.7-4.8v-6.5c0-2.4 0-2.8-1.2-3.3l-.5-.2c-.2-.2-.2-.7.1-.9 1.8 0 3.3-.4 4.1-.7.2 0 .3.1.4.3-.1.7-.1 1.5-.1 3.4v6.4zM224.8 126.8c0-1.5 0-1.7-1-2.4l-.3-.2c-.2-.2-.2-.6 0-.7.9-.3 3.1-1.3 3.9-1.9.2 0 .3.1.4.3-.1.9-.1 1.5-.1 1.8 0 .2.2.4.4.4 1.6-1 3.5-2 5.4-2 3.2 0 4.5 2.2 4.5 4.8v6.7c0 2.8.1 3.2 1.5 3.4l.9.1c.3.2.2.9-.1 1-1.2-.1-2.3-.1-3.6-.1-1.4 0-2.6 0-3.6.1-.3-.1-.3-.8-.1-1l.7-.1c1.4-.2 1.5-.6 1.5-3.4v-5.8c0-2.2-1-3.8-3.6-3.8-1.5 0-2.8.6-3.3 1.4-.5.7-.6 1.2-.6 2.3v5.9c0 2.8.1 3.1 1.5 3.4l.7.1c.3.2.2.9-.1 1-1-.1-2.2-.1-3.5-.1-1.4 0-2.6 0-3.6.1-.3-.1-.3-.8-.1-1l.8-.1c1.4-.2 1.5-.6 1.5-3.4v-6.8zM256.3 132.2c0 3.1 0 4.5 1.1 4.5.4 0 1.1-.2 1.7-.4.3.1.3 1 0 1.2-1.6.2-4 .8-5.1 1.2-.2 0-.4-.1-.4-.3v-.7c0-.6 0-1-.1-1.2h-.2c-1.7 1.2-3 1.8-4.9 1.8-4.3 0-7.2-3.4-7.2-7.4 0-5.4 4.1-8.9 9.4-8.9 1.3 0 2.2.2 2.6.3.2 0 .2-.2.2-.5V116c0-2.3 0-2.5-1.2-3.2l-.4-.2c-.2-.1-.2-.7 0-.8 1-.3 2.8-.9 4.2-1.6.2 0 .3.1.4.2 0 1.2-.1 3.1-.1 4.8v17zm-2.9-5.8c0-.8-.2-1.1-.4-1.5-.6-.8-1.7-1.6-3.3-1.6-3.5 0-5.4 3.1-5.4 6.4 0 3.5 2 6.9 5.8 6.9 1 0 2.4-.5 3-1.1.2-.2.3-.8.3-1.4v-7.7zM268.7 129.9c.6-.2.7-.5.7-1.1V127c0-1.4-.4-3.4-2.8-3.4-1.1 0-2.4.5-2.5 1.7 0 .6-.1 1.1-.4 1.3-.6.5-1.6.7-2.2.7-.3 0-.5-.2-.5-.5 0-2 4.4-4.8 7.2-4.8s4.1 1.6 4 4.5l-.2 6.7c-.1 1.8.3 3.4 1.8 3.4.4 0 .7-.1 1-.2.2-.1.4-.3.5-.3.2 0 .3.2.3.5 0 .2-1.4 1.7-3.3 1.7-.9 0-1.9-.3-2.5-1.2-.2-.2-.4-.5-.6-.5-.3 0-.7.3-1.5.8-.9.5-1.7 1-2.8 1-1.1 0-2.1-.3-2.7-.9-.7-.7-1.2-1.6-1.2-2.7 0-1.5.7-2.4 3.2-3.3l4.5-1.6zm-2.4 6.8c.8 0 2-.6 2.4-1 .5-.5.5-1 .5-1.8l.1-2.3c0-.4-.2-.5-.4-.5s-.9.2-1.6.4c-2.3.8-3.4 1.4-3.4 2.9-.1.6.4 2.3 2.4 2.3zM281.1 124.2c-.7 0-.7.1-.7.9v7.3c0 2.3.3 4.3 2.8 4.3.4 0 .7-.1 1-.2.3-.1.9-.5 1-.5.3 0 .5.4.4.7-.7.8-2.1 1.8-4.1 1.8-3.3 0-4-1.9-4-4.2v-8.9c0-1 0-1.1-.8-1.1h-1.1c-.2-.2-.3-.6-.1-.8 1.1-.3 2.1-.9 2.5-1.2.5-.5 1.2-1.5 1.6-2.3.2-.1.7-.1.8.2v1.7c0 .7 0 .7.7.7h4.3c.5.3.4 1.4 0 1.6h-4.3zM289.8 126.8c0-1.5 0-1.7-1-2.4l-.3-.2c-.2-.2-.2-.6 0-.7.9-.3 3.1-1.3 4-1.9.2 0 .3.1.4.2-.1 1.4-.2 3.2-.2 4.8v7c0 2.8.1 3.2 1.5 3.4l.8.1c.3.2.2.9-.1 1-1.2-.1-2.3-.1-3.6-.1-1.4 0-2.6 0-3.6.1-.3-.1-.3-.8-.1-1l.8-.1c1.4-.2 1.5-.6 1.5-3.4v-6.8zm3.2-11.1c0 1.4-1 2-2.1 2-1.2 0-2-.9-2-1.9 0-1.3.9-2.1 2.1-2.1 1.2 0 2 .9 2 2zM312.5 130.1c0 4.8-3.3 8.3-8.2 8.3-4.5 0-7.9-3.1-7.9-8s3.7-8.4 8.3-8.4c4.2.1 7.8 3.3 7.8 8.1zm-8.4-6.9c-2.6 0-4.5 2.4-4.5 6.7 0 3.5 1.6 7.3 5 7.3s4.5-3.6 4.5-6.6c0-3.2-1.3-7.4-5-7.4zM316.2 126.8c0-1.5 0-1.7-1-2.4l-.3-.2c-.2-.2-.2-.6 0-.7.9-.3 3.1-1.3 3.9-1.9.2 0 .3.1.4.3-.1.9-.1 1.5-.1 1.8 0 .2.2.4.4.4 1.6-1 3.5-2 5.4-2 3.2 0 4.5 2.2 4.5 4.8v6.7c0 2.8.1 3.2 1.5 3.4l.9.1c.3.2.2.9-.1 1-1.2-.1-2.3-.1-3.6-.1-1.4 0-2.6 0-3.6.1-.3-.1-.3-.8-.1-1l.7-.1c1.4-.2 1.5-.6 1.5-3.4v-5.8c0-2.2-1-3.8-3.6-3.8-1.5 0-2.8.6-3.3 1.4-.5.7-.6 1.2-.6 2.3v5.9c0 2.8.1 3.1 1.5 3.4l.7.1c.3.2.2.9-.1 1-1-.1-2.2-.1-3.5-.1-1.4 0-2.6 0-3.6.1-.3-.1-.3-.8-.1-1l.8-.1c1.4-.2 1.5-.6 1.5-3.4v-6.8z"/></svg>